/* XPM */
static char *flamme3[] = {
/* columns rows colors chars-per-pixel */
"32 32 153 2 ",
"   c #F38B1E",
".  c #DB8F39",
"X  c #DC9233",
"o  c #DF943C",
"O  c #EC8B26",
"+  c #E8852E",
"@  c #E68B2A",
"#  c #EC8C2B",
"$  c #F48B24",
"%  c #F28E29",
"&  c #FE8F28",
"*  c #EB9025",
"=  c #EF9C27",
"-  c #ED922B",
";  c #F19426",
":  c #F1942C",
">  c #F19A2D",
",  c #E98736",
"<  c #E58E35",
"1  c #EB8932",
"2  c #E28C3A",
"3  c #EB8E39",
"4  c #F48730",
"5  c #F48D36",
"6  c #E49135",
"7  c #EE9432",
"8  c #EF9B34",
"9  c #E3933C",
"0  c #ED9F3D",
"q  c #F09033",
"w  c #F89433",
"e  c #F39F35",
"r  c #F2923A",
"t  c #FA9F3C",
"y  c #ECA42F",
"u  c #F3A32E",
"i  c #ECA333",
"p  c #EDA838",
"a  c #F8A334",
"s  c #F0A837",
"d  c #F4AD38",
"f  c #F9B036",
"g  c #F7B03D",
"h  c #FBB23A",
"j  c #FFBC3D",
"k  c #FFC43D",
"l  c #B49B78",
"z  c #ADA27F",
"x  c #ACAA7E",
"c  c #B3A37E",
"v  c #B9A77C",
"b  c #DF8B42",
"n  c #DD8F49",
"m  c #D79444",
"M  c #DD9342",
"N  c #D3964B",
"B  c #DC934C",
"V  c #D3994E",
"C  c #DD9E4B",
"Z  c #CE9658",
"A  c #C7985D",
"S  c #CB9D59",
"D  c #D69751",
"F  c #DB9551",
"G  c #D29953",
"H  c #D19E5E",
"J  c #E78F4A",
"K  c #E89445",
"L  c #E39E42",
"P  c #FBAE41",
"I  c #F3B444",
"U  c #FCB443",
"Y  c #F5B847",
"T  c #FEBB42",
"R  c #FFBC4A",
"E  c #E2AD56",
"W  c #FEBD50",
"Q  c #C69D61",
"!  c #CD9C61",
"~  c #D39963",
"^  c #C49F71",
"/  c #C9A46C",
"(  c #D3A066",
")  c #C2A372",
"_  c #CBA274",
"`  c #CBA975",
"'  c #C3A77E",
"]  c #CCA67B",
"[  c #FEC444",
"{  c #FDC844",
"}  c #FEC44A",
"|  c #FAC651",
" . c #76AFBC",
".. c #6FB0C3",
"X. c #69B2CF",
"o. c #7CB7C4",
"O. c #73B5C8",
"+. c #76BACE",
"@. c #67B2D0",
"#. c #6AB6D0",
"$. c #64B9D7",
"%. c #6DB9D3",
"&. c #61B7D8",
"*. c #64BCDC",
"=. c #6BBDDC",
"-. c #74BBD3",
";. c #74BFD9",
":. c #4FBDEF",
">. c #56B9E5",
",. c #52BCEB",
"<. c #5BBFEA",
"1. c #46BFF7",
"2. c #60BEE6",
"3. c #6CBFE0",
"4. c #7BC2DC",
"5. c #5DC1EC",
"6. c #4DC2F7",
"7. c #42C0FB",
"8. c #4BC3FB",
"9. c #55C1F2",
"0. c #53C5FA",
"q. c #58C7FB",
"w. c #6EC4E7",
"e. c #63C5ED",
"r. c #6DC5EA",
"t. c #73C5E4",
"y. c #61C6F0",
"u. c #9FA08D",
"i. c #AFA286",
"p. c #A8A883",
"a. c #B1A382",
"s. c #B5A78C",
"d. c #B7AC8D",
"f. c #A8AC97",
"g. c #ADAE99",
"h. c #B9AE91",
"j. c #ABB19D",
"k. c #B1B19E",
"l. c #89A4A1",
"z. c #8FABA8",
"x. c #9BAFA7",
"c. c #95B2AC",
"v. c #81AFB6",
"b. c #8AADB1",
"n. c #84B0B5",
"m. c #8EB5BB",
"M. c #95B4B3",
"N. c #99B4B9",
"B. c #95B8BC",
"V. c #A9AEA5",
"C. c #A7B3A5",
"Z. c #C2AD8B",
"A. c #82B7C3",
/* pixels */
"q.8.8.8.8.8.8.8.8.8.8.8.8.8.8.8.8.8.8.8.8.8.8.8.8.8.8.8.8.8.8.q.",
"8.7.7.7.7.7.7.7.7.7.1.7.1.7.7.7.7.7.7.7.7.7.7.7.7.7.7.7.8.7.7.8.",
"8.7.7.7.7.7.7.7.7.7.7.7.7.7.7.7.7.7.7.7.7.7.7.7.7.7.7.7.7.7.7.8.",
"8.7.7.7.7.7.7.7.7.7.7.7.7.7.7.7.7.7.7.7.7.7.7.7.7.7.7.7.7.7.7.8.",
"8.7.7.7.7.7.7.7.7.7.7.7.7.7.7.7.7.7.@.>.1.1.7.7.7.7.7.7.7.7.7.8.",
"8.7.7.7.7.7.7.7.7.7.7.7.7.1.7.7.7.#.b.>.7.7.7.7.7.7.7.7.7.7.7.8.",
"8.7.7.7.7.7.7.7.7.7.7.7.3.:.1.1.:.a.v.1.7.7.7.7.7.7.7.7.7.7.7.8.",
"8.7.7.7.7.7.7.7.7.7.7.-.l =.6.3.a.Z &.1.<.1.7.7.7.7.7.7.7.7.7.8.",
"8.7.7.7.7.7.7.7.1.7.r.s.K V ~ B r s.6.7.7.7.7.7.7.7.7.7.7.7.7.8.",
"8.7.7.7.0.7.7.7.7.7.4._ % 7 , + o ;.1.7.7.7.7.7.7.7.7.7.7.7.7.8.",
"8.7.7.7.0.7.7.7.7.7.t.)   $ 5 4 V 6.7.7.7.7.7.7.7.7.7.7.7.7.7.7.",
"8.7.7.7.7.7.7.7.7.1.0.f.$ & 4 , Z.1.7.7.1.1.7.7.7.7.7.7.7.7.7.8.",
"8.7.7.7.7.7.7.7.7.7.7.;.K w 5 2 k.7.7.7.@.@.1.7.7.7.7.7.7.7.7.8.",
"8.7.7.7.7.7.7.7.9.9.7.1.j.9 g 0 h.1.7.7. .u.7.7.7.7.7.7.7.7.7.8.",
"8.7.7.7.7.7.,.O.x.N.<.1.-.N g I ` 7.7.7...b $.7.7.7.7.7.7.7.7.8.",
"8.7.7.7.7.7.*.z < J V.<.9.) y T E 5.7.7.>.! n l.7.7.7.7.7.7.7.8.",
"7.7.7.7.7.7.1.2.! 5 _ $.,.v i T R v o.#.z.2 % F %.1.7.7.7.7.7.8.",
"8.7.7.7.7.7.1.9.a.a ! +.=.S p T R 0 m G . e a # a.7.7.7.7.7.1.8.",
"8.7.7.7.7.7.,.A.( P p p.p.X d } } U - : e U h O A 0.7.7.7.7.7.7.",
"8.7.7.7.7.7. .. @ R T u > u j T } { { T } [ h * B r.7.7.7.7.7.8.",
"8.7.7.7.7.7.n.< @ W } [ h k k [ { { [ [ } { d * M y.7.7.7.7.7.8.",
"8.7.7.7.7.7.x.6 O U } } [ { k { } { k { } T u O F 7.7.7.7.7.7.8.",
"8.7.7.7.7.7.c.<   a [ } [ [ [ } | { k k { U : 5 ] 7.7.7.7.7.7.8.",
"0.7.7.7.7.7.-.( O ; h } [ { [ } | { { k T u O 3 M.7.7.7.7.7.1.8.",
"8.7.7.7.7.7.8.w.^ < - e T [ { { } { j h : 3 D h.9.7.7.7.7.7.7.8.",
"8.7.7.7.7.7.7.7.<.g.F 3 e p I Y I s > - 3 F A.<.7.7.7.7.7.7.7.8.",
"8.7.7.7.7.7.7.7.7.5.A.C./ V V C L 9 9 M ] m.9.1.7.7.7.7.7.7.7.8.",
"0.7.7.7.7.7.7.7.7.7.7.7.1.8.e.w.t.w.e.8.7.7.7.7.7.7.7.7.7.7.7.8.",
"8.7.7.7.7.7.7.7.7.7.7.7.7.7.7.7.7.7.7.7.7.7.7.7.7.7.7.7.7.7.7.7.",
"8.7.7.7.7.7.7.7.7.7.7.7.7.7.7.7.7.7.7.7.7.7.7.7.7.7.7.7.7.7.7.8.",
"8.7.7.7.7.7.7.7.1.7.7.7.7.7.7.7.7.7.7.7.7.7.7.1.7.7.7.7.7.1.7.8.",
"q.8.8.8.8.8.8.7.8.8.8.8.7.8.8.8.8.8.8.8.8.8.7.8.8.8.8.8.7.8.8.0."
};
