/* XPM */
static char *flamme1[] = {
/* columns rows colors chars-per-pixel */
"32 32 123 2 ",
"   c #EE8B1E",
".  c #F9871F",
"X  c #F3881C",
"o  c #ED8B25",
"O  c #EB872E",
"+  c #EE8E2D",
"@  c #F08722",
"#  c #FA8620",
"$  c #F38A24",
"%  c #F98A24",
"&  c #F3872B",
"*  c #FE842A",
"=  c #F48A2B",
"-  c #FD8B2A",
";  c #ED9325",
":  c #E5982F",
">  c #EB9C2D",
",  c #F69424",
"<  c #F39B23",
"1  c #F2912B",
"2  c #F59828",
"3  c #F89F2A",
"4  c #EE8734",
"5  c #EC8C32",
"6  c #E78F3B",
"7  c #E99235",
"8  c #E79B31",
"9  c #EB9933",
"0  c #E2913A",
"q  c #EB923C",
"w  c #EF9D39",
"e  c #F8A025",
"r  c #F2A22C",
"t  c #E2A230",
"y  c #EDA635",
"u  c #F3A335",
"i  c #F8A230",
"p  c #F1AA30",
"a  c #FCAB35",
"s  c #F3AC3C",
"d  c #F8AA38",
"f  c #FAB43F",
"g  c #FBBC3D",
"h  c #FFC537",
"j  c #FAC43C",
"k  c #FDC938",
"l  c #B79F73",
"z  c #B39E78",
"x  c #B9A270",
"c  c #B5A37D",
"v  c #CD9751",
"b  c #CD975C",
"n  c #D59450",
"m  c #D39B56",
"M  c #D0995E",
"N  c #E28D41",
"B  c #E69343",
"V  c #E19148",
"C  c #FEA842",
"Z  c #FEB242",
"A  c #FEBB44",
"S  c #FFBF48",
"D  c #CE9D64",
"F  c #CA9F6D",
"G  c #D39F65",
"H  c #C09C73",
"J  c #CCAC6E",
"K  c #C2A272",
"L  c #C9AA7C",
"P  c #C5B07C",
"I  c #FDC444",
"U  c #FAC843",
"Y  c #FFC44A",
"T  c #F7C94D",
"R  c #7FACB3",
"E  c #7BAFB9",
"W  c #6FB6CB",
"Q  c #71B3C6",
"!  c #64B6D5",
"~  c #60B8DB",
"^  c #6EBEDC",
"/  c #73BBD6",
"(  c #79BFD2",
")  c #5ABCE5",
"_  c #54BDEB",
"`  c #47BFF7",
"'  c #4ABFF4",
"]  c #45BFF8",
"[  c #63BFE4",
"{  c #7BC3DE",
"}  c #55C0EF",
"|  c #5BC1EE",
" . c #4DC1F5",
".. c #42C0FB",
"X. c #4BC3FB",
"o. c #53C2F3",
"O. c #5EC5F2",
"+. c #54C6FB",
"@. c #58C7FB",
"#. c #6CC2E5",
"$. c #62C3EC",
"%. c #9EA492",
"&. c #9EA897",
"*. c #ABA182",
"=. c #ABA38B",
"-. c #B0A782",
";. c #B8A986",
":. c #B5AD8D",
">. c #BBB082",
",. c #A6AF9C",
"<. c #A8AB9A",
"1. c #97AAA2",
"2. c #92AFAB",
"3. c #9BAFA9",
"4. c #9BB6AF",
"5. c #85ADB0",
"6. c #88B7BD",
"7. c #92B3B3",
"8. c #97B8B9",
"9. c #A4AEA5",
"0. c #C0A783",
"q. c #82B5C4",
"w. c #8BBEC8",
/* pixels */
"@.X.X.X.X.X.X.X...X.X.X.X.X.X.X.X.X.X.X.X.X.X.X.X.X.X.X.+.X.X.@.",
"X.............................................................X.",
"X.............................................................X.",
"X.............................................................X.",
"X...............................X.$. .........................X.",
"X.........................] ..{ <.8...........................X.",
"X...................#.w. ...7.n b ) ..........................X.",
"X...............] ] ^ 6. . .M 5 %.............................X.",
"X................... .} ..) = 5 R ............................X.",
"X.....................X._ Q = $ 5.............................X.",
"X.......................) *.= $ z ' ..........................X.",
"X.......................o.=.o - 4 1. .........................X.",
"X.......................o.:.X # * 6 W .. .....................X.",
"X.......................} c % * $ $ v _ ......................X.",
"X.......................Q V % = = @ B ! ........................",
"X.....................| H % = 5 ; C O 2.q.....................X.",
"X...................X.2.6 % = u ; A : P L E ..................X.",
"X................. .| ;.= % 2 A p Y t >.J 5 ~ ................X.",
"X.................<.G q $ X a Y S I 8 B 7 = =.' ..............X.",
"X...............<.7 o $ ; r I I I S > s C , b ) ..............X.",
"X.............O.K   3 a f I I U j I g j I < m [ ..............X.",
"X.X...........$.G 3 j I I I I I k h j T j r G ) ..............X.",
"X...........] @.F < A I Y U I Y I I I T Y w 0._ ................",
"X...........] ..9.+ d I I U U Y Y Y I I g 9 3. ...............X.",
"X.X.............| D q d A I I Y I I A f 9 m [ ................X.",
"X................./ K 0 : y s s s u w B J ( ..................X.",
"X.....................{ ,.x x K x -.7.#.] ] ..................X.",
"X.........................o.o.@.o.X.........................] X.",
"X...............................................................",
"X.............................................................X.",
"X.............................................] ..........] ..X.",
"@.X.X.X.X.X.X.X.X.X.X.X.X.X.X. ...X.X.X.X...X.X.X.X.X.X...X.X.+."
};
