/* XPM */
static char * player_right_xpm[] = {
"32 32 202 2",
"  	c #58C7FB",
". 	c #4DC4FB",
"+ 	c #4CC3FB",
"@ 	c #4BC3FB",
"# 	c #4AC3FB",
"$ 	c #4AC2FB",
"% 	c #4CC4FB",
"& 	c #55C6FB",
"* 	c #41C0FB",
"= 	c #42C0FB",
"- 	c #644333",
"; 	c #7A5038",
"> 	c #946247",
", 	c #6F4634",
"' 	c #8B5C40",
") 	c #B17E51",
"! 	c #B98450",
"~ 	c #BF8752",
"{ 	c #B37C4D",
"] 	c #8E5E3E",
"^ 	c #614430",
"/ 	c #704435",
"( 	c #B0784C",
"_ 	c #C79154",
": 	c #C69054",
"< 	c #C68F52",
"[ 	c #B68553",
"} 	c #704F38",
"| 	c #5E3D31",
"1 	c #91563F",
"2 	c #B47A4B",
"3 	c #A7764B",
"4 	c #48302B",
"5 	c #824C38",
"6 	c #985940",
"7 	c #AC7149",
"8 	c #C58D54",
"9 	c #CB9A5E",
"0 	c #CDA167",
"a 	c #B7895B",
"b 	c #734738",
"c 	c #2D201C",
"d 	c #7B4B3A",
"e 	c #995A41",
"f 	c #985C40",
"g 	c #A96E47",
"h 	c #D7B37A",
"i 	c #E3C893",
"j 	c #E9D09E",
"k 	c #F2DBAF",
"l 	c #DBBA94",
"m 	c #956451",
"n 	c #2A1E1D",
"o 	c #744938",
"p 	c #9B6849",
"q 	c #A06445",
"r 	c #B38259",
"s 	c #E0C38D",
"t 	c #DBBF8D",
"u 	c #DEC198",
"v 	c #F1DEBD",
"w 	c #D8BEA0",
"x 	c #724B40",
"y 	c #543229",
"z 	c #926B4A",
"A 	c #AD7654",
"B 	c #D1A977",
"C 	c #E1C491",
"D 	c #CBA16D",
"E 	c #8D6E54",
"F 	c #AC9672",
"G 	c #C5AA82",
"H 	c #5D4132",
"I 	c #402825",
"J 	c #492C27",
"K 	c #976448",
"L 	c #CFA56D",
"M 	c #DBB980",
"N 	c #E1C290",
"O 	c #CDAF8B",
"P 	c #CFB38B",
"Q 	c #CFB594",
"R 	c #DEBE88",
"S 	c #E4C895",
"T 	c #574035",
"U 	c #6B4B3A",
"V 	c #8A5E3F",
"W 	c #B47A4C",
"X 	c #BC8959",
"Y 	c #DABA85",
"Z 	c #D9BB8A",
"` 	c #958066",
" .	c #A68770",
"..	c #DBC3A2",
"+.	c #DEC39A",
"@.	c #B38A63",
"#.	c #A16A4A",
"$.	c #845338",
"%.	c #7E5D43",
"&.	c #66523E",
"*.	c #FAE5C1",
"=.	c #EED4A8",
"-.	c #D6B685",
";.	c #C7A576",
">.	c #8A654D",
",.	c #DBBF8E",
"'.	c #E3CB97",
").	c #E4C999",
"!.	c #CCAB7E",
"~.	c #89674F",
"{.	c #9B694C",
"].	c #D1AA76",
"^.	c #E4C993",
"/.	c #CAAD7E",
"(.	c #BE9468",
"_.	c #DBBA88",
":.	c #E0C28D",
"<.	c #794F37",
"[.	c #CAA372",
"}.	c #8E6D51",
"|.	c #3D2A21",
"1.	c #805239",
"2.	c #B58158",
"3.	c #B08257",
"4.	c #543930",
"5.	c #88614A",
"6.	c #D8BC89",
"7.	c #D2B383",
"8.	c #55372A",
"9.	c #B3865B",
"0.	c #D1AA71",
"a.	c #AD7E56",
"b.	c #89644B",
"c.	c #B99168",
"d.	c #4D2F25",
"e.	c #714B35",
"f.	c #E0C08A",
"g.	c #B4865C",
"h.	c #4E332B",
"i.	c #A1835F",
"j.	c #D7B386",
"k.	c #663C2E",
"l.	c #D1A56B",
"m.	c #9C6D46",
"n.	c #43342D",
"o.	c #BEA783",
"p.	c #FCE9C2",
"q.	c #B39267",
"r.	c #452C25",
"s.	c #A57F58",
"t.	c #DDBB84",
"u.	c #917455",
"v.	c #412F28",
"w.	c #B59870",
"x.	c #E4C698",
"y.	c #C9A783",
"z.	c #A97E58",
"A.	c #B08153",
"B.	c #CA9B5F",
"C.	c #674A3A",
"D.	c #C99E6E",
"E.	c #A37B5C",
"F.	c #8C5A3E",
"G.	c #C7A070",
"H.	c #BF8D5C",
"I.	c #704433",
"J.	c #6B503F",
"K.	c #735441",
"L.	c #D7BE8E",
"M.	c #694131",
"N.	c #39261F",
"O.	c #DFC590",
"P.	c #794836",
"Q.	c #C2A47A",
"R.	c #C59A6C",
"S.	c #885339",
"T.	c #957251",
"U.	c #8C523B",
"V.	c #946341",
"W.	c #7C583B",
"X.	c #AB8C65",
"Y.	c #946C50",
"Z.	c #744435",
"`.	c #A5714A",
" +	c #976C48",
".+	c #53362B",
"++	c #896345",
"@+	c #F8E2BC",
"#+	c #F0D8B7",
"$+	c #9F7C63",
"%+	c #513127",
"&+	c #51392A",
"*+	c #B3946D",
"=+	c #E3CBA1",
"-+	c #E7CBA2",
";+	c #B5906C",
">+	c #583E30",
",+	c #49372E",
"'+	c #624D3E",
")+	c #7A5A46",
"!+	c #644435",
"~+	c #53C5FB",
"  . + + @ @ # $ $ $ $ $ $ @ @ @ @ @ + % % % % % . . . . . . % & ",
"+ * = = = = = = = = = = = = - ; > , = = = = = = = = = = = = * $ ",
"+ = = = = = = = = = = = = ' ) ! ~ { ] ^ = = = = = = = = = = = $ ",
"@ = = = = = = = = = = = / ( _ _ : : < [ } = = = = = = = = = = $ ",
"@ = = = = = = = = = = | 1 2 _ _ : < : : 3 = = = = = = = = = = $ ",
"@ = = = = = = = = = 4 5 6 7 8 _ 9 0 0 0 a b = = = = = = = = = $ ",
"@ = = = = = = = = = c d e f g { h i j k l m = = = = = = = = = $ ",
"@ = = = = = = = = = n o 5 p q r s t u v w x = = = = = = = = = $ ",
"# = = = = = = = = = = y y z A B C D E F G H = = = = = = = = = $ ",
"$ = = = = = = = = = = I J y K L M N O P Q H = = = = = = = = = $ ",
"$ = = = = = = = = = = = c I K 8 9 R S k w T = = = = = = = = = $ ",
"$ = = = = = = = = = = = = U V ] W X Y Z ` = = = = = = = = = = $ ",
"# = = = = = = = = = = =  ...+.@.#.$.%.&.= = = = = = = = = = = $ ",
"@ = = = = = = = = = = = +.*.*.=.-.;.%.= = = = = = = = = = = = $ ",
"@ = = = = = = = = = = >.,.'.).).S S !.~.= = = = = = = = = = = $ ",
"@ = = = = = = = = = = {.].^./.z (._.:.E = = = = = = = = = = = $ ",
"@ = = = = = = = = = = <.[.s }.|.1.2.3.4.= = = = = = = = = = = $ ",
"@ = = = = = = = = = = 5.6.7.| 8.9.0.a.I = = = = = = = = = = = $ ",
"+ = = = = = = = = = = b.,.c.d.e.[.f.g.h.= = = = = = = = = = = $ ",
"+ = = = = = = = = = = i.=.j.' k.9.l.m.= = = = = = = = = = = = $ ",
"% = = = = = = = = = n.o.p.=.q.r.s.t.u.= = = = = = = = = = = = $ ",
"% = = = = = = = = = v.w.x.y.z.e.A.B.C.= = = = = = = = = = = = $ ",
"% = = = = = = = = = = z D.E.F.G.t.H.I.= = = = = = = = = = = = $ ",
"% = = = = = = = = = = = J.K.U L.C 2.M.= = = = = = = = = = = = $ ",
". = = = = = = = = = = = = N.u.O.R {.P.= = = = = = = = = = = = $ ",
". = = = = = = = = = = = = | Q.S R.S.6 b = = = = = = = = = = = $ ",
". = = = = = = = = = = = = T.7.t.{.U.e V.W.= = = = = = = = = = $ ",
". = = = = = = = = = = = = X.f.0.Y.Z.$.`. +.+= = = = = = = = = $ ",
". = = = = = = = = = = = = ++N @+#+$+%+| |.= = = = = = = = = = $ ",
". = = = = = = = = = = = = &+*+=+-+;+>+= = = = = = = = = = = = $ ",
"% * = = = = = = = = = = = = ,+'+)+!+= = = = = = = = = = = = * $ ",
"& $ $ $ $ $ $ $ $ $ $ $ $ $ $ $ $ $ $ $ $ $ $ $ $ $ $ $ $ $ $ ~+"};
