/* XPM */
static char *FLAMMES1721834897[] = {
/* columns rows colors chars-per-pixel */
"32 32 57 1 ",
"  c #ED8626",
". c #EF8D26",
"X c #ED8F2C",
"o c #F48726",
"O c #F58A26",
"+ c #F88C26",
"@ c #F48729",
"# c #F48C29",
"$ c #F88E2A",
"% c #F39527",
"& c #FB9126",
"* c #F5922A",
"= c #F9922B",
"- c #F69C2F",
"; c #F99C2F",
": c #EC8D32",
"> c #F18F31",
", c #F59433",
"< c #F89337",
"1 c #F79D31",
"2 c #F99C31",
"3 c #F6A331",
"4 c #F9A534",
"5 c #FAAC3A",
"6 c #F9B33B",
"7 c #F7B83C",
"8 c #F9BA3D",
"9 c #EA8F4B",
"0 c #ED9243",
"q c #EE904D",
"w c #F19041",
"e c #EE9155",
"r c #EC925C",
"t c #F59652",
"y c #F1925A",
"u c #FCBE41",
"i c #D99579",
"p c #EE9963",
"a c #E8956A",
"s c #E59570",
"d c #EA9B74",
"f c #E19678",
"g c #E59C78",
"h c #FEC543",
"j c #FDC945",
"k c #4BC0F7",
"l c #76C0F7",
"z c #BDA7AD",
"x c #DA9A8A",
"c c #CE9D9C",
"v c #D49B93",
"b c #C8A1A8",
"n c #B3ADC3",
"m c #A4BDD0",
"M c #8FC0D0",
"N c #91C0D0",
"B c #A6C0D0",
/* pixels */
"kkkkkkkkkBlkkp0w9elkkkkkkkkkkkkk",
"kkkkkkkkkllkk,#@#:lkkkkkkkkkkkkk",
"kkkkkkkkkkxtr%.#O#nkkkkkkkkkkkkk",
"kkkkkkkkkkNX+#OO@Oekkkkkkkkkkkkk",
"kkkkkkkkkkkb#@OO#O#lkkkkkkkkkkkk",
"kkkkkkkkkkkk=OOOOO@ Mkkkkkkkkkkk",
"kkkkkkkkkkkk##ooO#O@.klazkkkkkkk",
"kkkkkkkkkkkk#++oOOOO#qleBkkkkkkk",
"kkkkkkkkkkkkOOOOOOOOO#lvkkkkkkkk",
"kkkkkkkkkkkb$ooOoOOOO*akkkkkkkkk",
"kkkkkkkkkkk$+oOOOOOo@+#xkkkkkkkk",
"kkkkkkkkkk>+ooOOOo35@.&=xkkkkkkk",
"kkkkkkkkkk*OOo++oO2h#O==#ikkkkkk",
"kkkkkkkkkq+oOOOu2O4j=#==.#gkkkkk",
"kkkkkkkkk>#OOOOuh+uh;O$&###mkkkk",
"kkkkkkkf##+Ooo+hh8hj;O@%@O*rkkkk",
"kkkkkM.#+O@+OO3hhhhh;Oo*OO#,kkkk",
"kkkkkXO#OoOO+*hhhhhj*O&u-O@=kkkk",
"kkkkz*#OOOoO2uhjhhhh%5hh7O.#kkkk",
"kkkkaOO#48uhhhhhhhhhhhjhh@@*kkkk",
"kkkkr%@5jhhhhhhhhhhhhhhhh*O$kkkk",
"kkkkr+@7hhhhhhhhhhhhhhhjh;X<kkkk",
"kkkkx*@6hhhhhhhhhhhhhhhhj,O0kkkk",
"kkkkl@O=hhhhhhhhhhhhhhhhu#%xkkkk",
"kkkkk,@#4jhhhjhjhhhhhhhh1@*lkkkk",
"kkkkkm+.O3hjhhhhhhhjhju-##vkkkkk",
"kkkkkkc*#O#36uhjhhju7-$O#dkkkkkk",
"kkkkkkkzXO+O@O#***%@ .#*ckkkkkkk",
"kkkkkkkkkfO*O#*+%#+#=:xkkkkkkkkk",
"kkkkkkkkkkkkzaryrsclkkkkkkkkkkkk",
"kkkkkkkkkkkkkkkkkkkkkkkkkkkkkkkk",
"kkkkkkkkkkkkkkkkkkkkkkkkkkkkkkkk"
};
