/* XPM */
static char *ennemi_front[] = {
/* columns rows colors chars-per-pixel */
"32 32 217 2 ",
"   c #1C1D29",
".  c #1C1E39",
"X  c #21192A",
"o  c #23183A",
"O  c #231936",
"+  c #1A242C",
"@  c #19292B",
"#  c #1A2428",
"$  c #1A2633",
"%  c #1C2837",
"&  c #212629",
"*  c #232537",
"=  c #3E3E3E",
"-  c #1A174E",
";  c #1E1F56",
":  c #241741",
">  c #2A164C",
",  c #29184C",
"<  c #271647",
"1  c #271954",
"2  c #2D1A53",
"3  c #2E1A5C",
"4  c #251856",
"5  c #311B5A",
"6  c #1F3040",
"7  c #1E2B45",
"8  c #2B3349",
"9  c #2F225F",
"0  c #32235A",
"q  c #38215E",
"w  c #263052",
"e  c #283053",
"r  c #293A58",
"t  c #333B4D",
"y  c #2C1C64",
"u  c #341D61",
"i  c #2D2466",
"p  c #2E246A",
"a  c #292662",
"s  c #352264",
"d  c #392162",
"f  c #35276A",
"g  c #2E3169",
"h  c #35346D",
"j  c #2D2875",
"k  c #342472",
"l  c #3D2A7D",
"z  c #352A78",
"x  c #2F307B",
"c  c #3C327D",
"v  c #373778",
"b  c #40297B",
"n  c #274455",
"m  c #334659",
"M  c #2D4C6A",
"N  c #2A4663",
"B  c #324B6E",
"V  c #29576C",
"C  c #30546D",
"Z  c #394472",
"A  c #2A5A73",
"S  c #295C77",
"D  c #355972",
"F  c #34647A",
"G  c #46494F",
"H  c #464176",
"J  c #767579",
"K  c #AE567C",
"L  c #3D2E81",
"P  c #3C3384",
"I  c #373587",
"U  c #3A3593",
"Y  c #453889",
"T  c #4C3E9C",
"R  c #433B93",
"E  c #3A4389",
"W  c #39518B",
"Q  c #327A9D",
"!  c #327798",
"~  c #346A8F",
"^  c #377CA7",
"/  c #386FAB",
"(  c #44418A",
")  c #53408F",
"_  c #434496",
"`  c #4B429D",
"'  c #444C9B",
"]  c #4E4F9F",
"[  c #4B5580",
"{  c #53608C",
"}  c #566697",
"|  c #5B739E",
" . c #5E7C8C",
".. c #637698",
"X. c #686C80",
"o. c #4C43A5",
"O. c #4D44AB",
"+. c #494EA9",
"@. c #4946A1",
"#. c #554DA7",
"$. c #4A54A8",
"%. c #5256AA",
"&. c #4D4AB1",
"*. c #514FB5",
"=. c #4D5CB1",
"-. c #4D53B6",
";. c #5253BA",
":. c #555CBC",
">. c #5758B5",
",. c #7757A5",
"<. c #5F72A7",
"1. c #4D69B1",
"2. c #5262BE",
"3. c #5D6DBD",
"4. c #5764B7",
"5. c #5D70B2",
"6. c #4F72AA",
"7. c #6A69AB",
"8. c #7C65AE",
"9. c #686AB7",
"0. c #6478B8",
"q. c #7C72BE",
"w. c #4F5EC7",
"e. c #585CC4",
"r. c #5C65C4",
"t. c #5B6BCD",
"y. c #5769C7",
"u. c #5A75CA",
"i. c #5B79C7",
"p. c #566ED2",
"a. c #5A6ED1",
"s. c #5D7DD3",
"d. c #5D72D1",
"f. c #4A7AC1",
"g. c #616CCB",
"h. c #626BC8",
"j. c #647AC9",
"k. c #777BC7",
"l. c #6479D8",
"z. c #657AD4",
"x. c #885898",
"c. c #A75682",
"v. c #8F619E",
"b. c #9C6E9D",
"n. c #A26B99",
"m. c #9E7CAF",
"M. c #987EB4",
"N. c #3584AB",
"B. c #368BB4",
"V. c #378DB9",
"C. c #3891BD",
"Z. c #4C8099",
"A. c #7A8C90",
"S. c #4787AE",
"D. c #7E92AC",
"F. c #7188B1",
"G. c #7CA6B6",
"H. c #3A9ECD",
"J. c #3A97C5",
"K. c #3CA0CF",
"L. c #3CA4D5",
"P. c #3EAADD",
"I. c #3CA6D8",
"U. c #3EADE2",
"Y. c #3FB3EA",
"T. c #568DCC",
"R. c #5185CA",
"E. c #419BCE",
"W. c #5998CF",
"Q. c #6985C7",
"!. c #7A8BCB",
"~. c #6784D5",
"^. c #768BD8",
"/. c #7B90DF",
"(. c #679EDA",
"). c #40A2D7",
"_. c #76A2DF",
"`. c #67A2D2",
"'. c #6B88E3",
"]. c #7D9EEC",
"[. c #7A97E6",
"{. c #708EE6",
"}. c #40B6ED",
"|. c #41B1E6",
" X c #41BBF3",
".X c #42BEF9",
"XX c #41B7F0",
"oX c #73A4E3",
"OX c #42C0FB",
"+X c #4BC3FB",
"@X c #55C6FB",
"#X c #8C918D",
"$X c #939493",
"%X c #8895AD",
"&X c #9BA3A6",
"*X c #89A6BB",
"=X c #87A6BC",
"-X c #93A5BD",
";X c #A0A4B7",
":X c #8798DF",
">X c #9097DD",
",X c #8B96C1",
"<X c #95B5D4",
"1X c #8BA5C9",
"2X c #839AE2",
"3X c #829DEB",
"4X c #8394E4",
"5X c #85ABE6",
"6X c #93B3EA",
"7X c #9ABFF2",
"8X c #9DC3F7",
"9X c #AECFFF",
"0X c #A3C9FA",
"qX c #B2CFFB",
"wX c #A7D2FC",
"eX c #A6C5E6",
"rX c #C2C4C5",
/* pixels */
"@X+X+X+X+X+X+X+X+X+X+X+X+X+X+X+X+X+X+X+X+X+X+X+X+X+X+X+X+X@X+X@X",
"+XOXOXOXOXOXOXOXOXOXOXOXOXOXOXOXOXOXOXOXOXOXOXOXOXOXOXOXOXOXOX+X",
"+XOXOXOXOXOXOXOXOXOXOXOXOXOXOXOXOXOXOXOXOXOXOXOXOXOXOXOXOXOXOX+X",
"+XOXOXOXOXXX).OXOXOXOXOXOXL.N.Q ! ! Q B.Y.OXOXOX XP.OXOXOXOXOX+X",
"+XOXOXOXOXJ.V OX.XOXOXY.Y.n # # # + # * N.OXY.OXV.n P.OXOXOXOXOX",
"+XOXOX}.V.G.&XS.N.B.B.Q F %X*X=X*X=X1X-X .V S S #X$XZ.K.OXOXOX+X",
"+XOXOXL.& #XrXG % * * $ m eXwXwXwXwXwXqX..% % $ #XrXG V OXOXOX+X",
"+XOXOXL.& J ;X..} 1X<X<X<X5X[.~.^.5X[.R.Q.F.5.} %X&X= A OXOXOX+X",
"+XOXOXK.& X.,XF.Q.7X0X0X8X[.^.8.q.4X!.7.k.[.'.u.F.%X= V .XOXOX+X",
"+XOXOXJ.$ [ 0.6X0X5X3XR.i.i.8.K n.>Xm.K v.g.'.].j.0.8 A OXOXOX+X",
"+XOXOXK.% { Q.6X8X_.{.u.y.w.,.c.b.>Xm.c.x.>.z.[.~.0.e A OXOXOX+X",
"+XOXOXL.@ D.qX5X].s.p.p.y.U R 9.k.3X^.9.#.I =.u.{.4Xr A OXOX.X+X",
"+XOXOXK.@ D.8X[.{.d.t.p.w.j I =.4.0.3.=._ j ' 2.l.^.r S OXOXOX+X",
"+XOXOXK.@ | ].s.y.a.a.p.1.; 4 P z - i I p 4 P O.w.3.w S OXOX.X+X",
"+XOXOXK.@ | ].s.t.y.w.p.>.i i p p a p p z b _ O.r.y.w A OXOXOX+X",
"+XOXOXK.+ <.].s.t.&.&.t.r.U j < 4 I p - E g.>.o.e.3.w S OXOX.X+X",
"OXOXOXL.$ | ].l.t.U Y *.;.&.+.E W &.' E +.;.T U ;.9.w S .X.X.X+X",
"+XOXOXI.$ | ].z.h.L k T &.g.g.t.g.a.g.g.:.@.Y p %.3.w S .X.X.X+X",
"+XOXOXI.$ | ].r.#.s 3 l U *.*.;.;.;.e.;.T l f 4 +.9.w S OXOXOX+X",
"+XOXOXL.$ | 3X:.T y < s l o.o.O.o.o.O.O.Y s 1 4 ] 3.w A OXOX.X+X",
"+XOXOXI.$ | 5X:.T y < q f b b b b b l l s > 5 i %.3.w S OXOXOX+X",
"+XOXOXL.% | [.e.o.y > q q s d d d 5 s s 2 > u k %.r.e S OXOXOX+X",
"+XOXOXL.$ | 3Xl.4.x 5 1 > > > > > > > , < > b T :.3.e S OXOXOX+X",
"+XOXOX}.S } !.j.h.v 9 3 3 > o o o o : < < > Y +.%.} ~ V.OXOX.X+X",
"@XOXOXOX XC 6 j./.g 4 Y Y > O X X   O o 2 s @.r.v N Y.OXOXOXOX+X",
"+XOXOXOXOXF # 0.[.v 3 T _ , * n A ~ N O 0 l %.u.r n Y.OXOXOXOX+X",
"+XOXOXOX.XA # 0.:XZ k ` ( O C |. XOXJ.% g ` >.9.r r Y.OXOXOXOX+X",
"+XOXOX|.J.C M F.^.$._ Y b e W P. XOXK.% h %.w.2.E Z L.Y.OXOXOX+X",
"+XOXOXN.6 | /.~.t.[.!.a y ) H r C.OXL.* H g.;.o.4.<.M Q OXOXOX+X",
"+XOXOXP.V.W.oXW.T.(.`.^ / 1.S.C.).OXY.C.S.T.R.f.R.T.E.Y.OXOXOX+X",
"+XOXOXOXOXOXOXOXOXOXOXOXOXY.OXOXOXOXOXOX.XOXOX.X.XOXOXOXOXOXOX+X",
"@X+X+X+X+X+X+XOXOX+X+X+X+X+X+X+X+X+X+X+X+X+X+X+X+X+X+X+X+X+X+X+X"
};
