/* XPM */
static char *result[] = {
/* columns rows colors chars-per-pixel */
"48 48 160 2 ",
"   c #283047",
".  c #2B334A",
"X  c #353D53",
"o  c #394259",
"O  c #434C63",
"+  c #485065",
"@  c #46536C",
"#  c #4A546B",
"$  c #4E5D76",
"%  c #505E77",
"&  c #5A5E72",
"*  c #586074",
"=  c #54637C",
"-  c #656D80",
";  c #6C6E82",
":  c #61738D",
">  c #6D7689",
",  c #717386",
"<  c #777A8C",
"1  c #6B7D96",
"2  c #697D98",
"3  c #6C809C",
"4  c #7B8395",
"5  c #74849C",
"6  c #7A879C",
"7  c #7D889B",
"8  c #6F84A0",
"9  c #7389A4",
"0  c #7C8DA5",
"q  c #798EA9",
"w  c #7C92AE",
"e  c #838395",
"r  c #808897",
"t  c #838B9C",
"y  c #888F9F",
"u  c #908FA1",
"i  c #8D94A3",
"p  c #8597AE",
"a  c #8997AD",
"s  c #8999AE",
"d  c #9394A5",
"f  c #9896A7",
"g  c #9498A7",
"h  c #9997A8",
"j  c #959CAB",
"k  c #9B9DAD",
"l  c #829AB6",
"z  c #8D9DB2",
"x  c #859CB9",
"c  c #889EB8",
"v  c #99A0AF",
"b  c #8EA0B6",
"n  c #86A0BC",
"m  c #8AA2BE",
"M  c #93A1B4",
"N  c #9CA3B2",
"B  c #96A6BB",
"V  c #9AA7B9",
"C  c #98A8BD",
"Z  c #A5A6B5",
"A  c #A8A5B6",
"S  c #A1A8B7",
"D  c #A5ADBB",
"F  c #ACA9B9",
"G  c #B3AFBF",
"H  c #AAB1BE",
"J  c #8CA5C2",
"K  c #8EA8C5",
"L  c #95AAC4",
"P  c #99ACC2",
"I  c #92ACCA",
"U  c #9DB0C7",
"Y  c #95B0CE",
"T  c #9CB1CA",
"R  c #97B3D1",
"E  c #9AB5D3",
"W  c #9EB9D5",
"Q  c #9EBBD9",
"!  c #A2B1C5",
"~  c #ACB4C3",
"^  c #AFB8C7",
"/  c #A4B5CA",
"(  c #A9B6C9",
")  c #A8BACE",
"_  c #B3B2C1",
"`  c #B9B5C5",
"'  c #B2BAC6",
"]  c #B4BCCA",
"[  c #BABDCB",
"{  c #A2BAD5",
"}  c #AABCD1",
"|  c #A2BFDD",
" . c #C0BDCC",
".. c #B6C1CF",
"X. c #BAC2CE",
"o. c #A2C0DF",
"O. c #AEC4DC",
"+. c #B2C1D4",
"@. c #BDC5D1",
"#. c #BEC8D7",
"$. c #B5C7DB",
"%. c #B6C8DD",
"&. c #BDC9D8",
"*. c #A5C3E2",
"=. c #A9C8E7",
"-. c #ABCAE9",
";. c #B3CDE7",
":. c #BBCDE1",
">. c #BED1E6",
",. c #B2D2F3",
"<. c #BFDAF4",
"1. c #B6D8F9",
"2. c #BBDDFD",
"3. c #BEE1FF",
"4. c #C3C6D3",
"5. c #CAC6D4",
"6. c #C2CAD6",
"7. c #CEC8D7",
"8. c #C5CEDA",
"9. c #CBCFDB",
"0. c #D2CDDB",
"q. c #C9D2DD",
"w. c #C1D3E6",
"e. c #CDD5E1",
"r. c #C2D5EB",
"t. c #C6D9EE",
"y. c #CFDAE8",
"u. c #D3D6E3",
"i. c #DBD5E3",
"p. c #D2DAE5",
"a. c #D4DEEA",
"s. c #D9DEE9",
"d. c #C4DCF5",
"f. c #CBDEF2",
"g. c #E0D8E6",
"h. c #E2DCEA",
"j. c #DAE2ED",
"k. c #CDE1F5",
"l. c #C4E3FF",
"z. c #CAE3FB",
"x. c #D2E4F5",
"c. c #DEE6F1",
"v. c #D2E5F8",
"b. c #D5E8FC",
"n. c #DCEBFB",
"m. c #E5E1EE",
"M. c #E9E1EE",
"N. c #E4E7F3",
"B. c #E3EBF5",
"V. c #E5EFFA",
"C. c #ECEFF9",
"Z. c #F0E6F3",
"A. c #F4EAF7",
"S. c #E6F1FD",
"D. c #EDF5FF",
"F. c #F3F4FE",
"G. c #FAF3FE",
"H. c #F0F8FF",
"J. c #F9F8FF",
"K. c None",
/* pixels */
"K.K.K.K.K.K.K.K.K.K.K.K.K.K.K.K.K.K.K.K.K.K.K.K.K.K.K.K.K.K.K.K.K.K.K.K.K.K.K.K.K.K.K.K.K.K.K.K.",
"K.K.K.K.K.K.K.K.K.K.K.K.K.K.K.K.K.K.K.K.K.K.K.K.K.K.K.K.K.K.K.K.K.K.K.K.K.K.K.K.K.K.K.K.K.K.K.K.",
"K.K.K.K.K.K.K.K.K.K.K.K.K.K.K.K.K.K.K.K.K.K.K.K.K.K.K.K.K.K.K.K.K.K.K.K.K.K.K.K.K.K.K.K.K.K.K.K.",
"K.K.K.K.K.K.K.K.K.K.K.K.K.K.K.K.K.K.K.K.K.K.K.K.K.K.K.K.K.K.K.K.K.K.K.K.K.K.K.K.K.K.K.K.K.K.K.K.",
"K.K.K.K.K.K.K.K.K.K.K.K.K.K.K.K.K.K.K.K.K.K.K.K.K.K.K.K.K.K.K.K.K.K.K.K.K.K.K.K.K.K.K.K.K.K.K.K.",
"K.K.K.K.K.K.K.K.K.K.K.K.K.K.K.K.K.K.K.K.K.K.K.K.K.K.K.K.K.K.K.K.K.K.K.K.K.K.K.K.K.K.K.K.K.K.K.K.",
"K.K.K.K.K.K.K.K.K.K.K.K.K.K.K.K.K.K.K.K.K.K.K.K.K.K.K.K.K.K.K.K.K.K.K.K.K.K.K.K.K.K.K.K.K.K.K.K.",
"K.K.K.K.K.K.K.K.K.K.K.K.K.K.K.K.K.K.K.K.K.K.K.K.K.K.K.K.K.K.K.K.K.K.K.K.K.K.K.K.K.K.K.K.K.K.K.K.",
"K.K.K.K.K.K.K.K.K.K.K.K.K.K.K.K.K.K.K.K.K.K.K.K.K.K.K.K.K.K.K.K.K.K.K.K.K.K.K.K.K.K.K.K.K.K.K.K.",
"K.K.K.K.K.K.K.K.K.K.K.K.K.K.K.K.K.K.K.K.K.K.K.K.K.K.K.K.K.K.K.K.K.K.K.K.K.K.K.K.K.K.K.K.K.K.K.K.",
"K.K.K.K.K.K.K.K.K.K.K.K.K.K.K.K.K.K.K.K.; > v ' 6.8.' Z F d & K.K.K.K.K.K.K.K.K.K.K.K.K.K.K.K.K.",
"K.K.K.K.K.K.K.K.K.K.K.K.K.K.K.K.K.4 ' j.j.8.' j D ~ D i N k Z 5.k K.K.K.K.K.K.K.K.K.K.K.K.K.K.K.",
"K.K.K.K.K.K.K.K.K.K.K.K.K.K.K.# N c.H.H.H.H.B.' B.B.B.V.D.N.] N.A.7.e K.K.K.K.K.K.K.K.K.K.K.K.K.",
"K.K.K.K.K.K.K.K.K.K.K.K.K.K.5 ~ D.D.D.D.V.j.6.q.D.D.D.D.D.D.j.' D.F.m.k K.K.K.K.K.K.K.K.K.K.K.K.",
"K.K.K.K.K.K.K.K.K.K.K.K.K.C ^ 6.j.S.D.D.B.H D S.H.D.H.H.H.H.H.@.8.B.s. .; K.K.K.K.K.K.K.K.K.K.K.",
"K.K.K.K.K.K.K.K.K.K.K.K.T S.D.j.' D ] @.X.i v e.e.e.u.q.@.@.X.H v ' X.6.Z e K.K.K.K.K.K.K.K.K.K.",
"K.K.K.K.K.K.K.K.K.K.K.J n.D.H.S.X.j.C.j.p.q.8.8.6.6.8.6.i g 6.B.S.D.D.H.u.F < K.K.K.K.K.K.K.K.K.",
"K.K.K.K.K.K.K.K.K.K.9 k.H.D.H.u.8.D.D.H.D.H.H.H.H.H.H.D.X.B.j.D.D.D.D.D.D.4.A K.K.K.K.K.K.K.K.K.",
"K.K.K.K.K.K.K.K.K.K.O.D.D.S.D.[ c.H.D.D.D.D.D.D.H.S.j.q.v 6.p.B.H.H.D.D.D.N.` u K.K.K.K.K.K.K.K.",
"K.K.K.K.K.K.K.K.K.: ! u.j.X.8.X.D.D.D.D.D.D.H.B.X.H ' #.H t u Z _ p.D.D.D.j. .G K.K.K.K.K.K.K.K.",
"K.K.K.K.K.K.K.K.K.{ ..D D i 7 ' B.D.D.H.H.D.a.V &.S.H.S.q.D i i g < S S.H.j.g e ; K.K.K.K.K.K.K.",
"K.K.K.K.K.K.K.K.3 d.#.B.S.j.6.' ~ ~ D ^ ( U q o.1.<.&.D X.j.C.X.j.0.d k @.~ Z 5.G K.K.K.K.K.K.K.",
"K.K.K.K.K.K.K.K.n y.X.H.D.D.H.D.D.p.P ;.o.q I K x 5 N c.H.D.V.#.B.H.G.[ v c.D.G.i.K.K.K.K.K.K.K.",
"K.K.K.K.K.K.K.K.W e.q.H.D.D.D.D.S.O.o.3.o.I 3.2.Q 7 X.D.H.V.' g m.H.C.h.F @.D.F.Z.e K.K.K.K.K.K.",
"K.K.K.K.K.K.K.K.;.8.j.H.D.D.D.D.z.Y ,.2.J -.2.1.L j.#.6.j.S > 5 B ] B.q.f k V.F.A.k K.K.K.K.K.K.",
"K.K.K.K.K.K.K.K./ @.B.H.D.D.D.b.,.I 1.,.J 2.2.=./ D.D.' * . . : l q i ..h.` e.H.0.d K.K.K.K.K.K.",
"K.K.K.K.K.K.K.$ s ~ ' 8.j.D.D.;.J K 3.*.I 2.3.E 8.H.H.r   . . = K W 0 X.J.0.[ D.0., K.K.K.K.K.K.",
"K.K.K.K.K.K.K.3 %.B.j.8.~ N / J 3 w *.J Y 2.,.L j.H.j.+ . .   % ,.3.-.! F.g.k @.G k K.K.K.K.K.K.",
"K.K.K.K.K.K.K.8 z.D.D.H.p.X.d.*.E R R w w I n 6 c.D.@.o . . . @ n I Q M D.g.D D.h.A K.K.K.K.K.K.",
"K.K.K.D.B.+.a 1 d.D.D.D.e.8.l.2.3.3.3.E o.-.J 5 X.X.g . . .   % ,.*.K 6 [ G N H.m.A K.K.K.K.K.K.",
"K.K.D.D.S.x.z.C { j.S.B.q.q.3.2.2.*.Q K *.3.2.P B.D.^ . . .   % 1.3.1.M N.h.Z B.i.f k 8.B.K.K.K.",
"K.K.D.D.V.w.>.t.} / ~ X.v +.2.-.-.K 5 1 Y 1.2.C B.H...# # o + = ,.2.*.a C.M.d ] S 4 ..D.D.D.K.K.",
"K.K.K.D.B.&.C ! +.z.t.M 7 M p 0 b } >.w.P c *.P B.N.X.+.r.} %.P m W J 7 C. .N D.C.e.B.D.D.D.K.K.",
"K.K.K.K.D.D.f.t.w.k.k.r.f.f.>.f.f.x.z.+./ / 1 5 @.~ 7 :.k.f.) C z a 0 4 4.d v H.D.D.D.D.K.K.K.K.",
"K.K.K.K.D.D.b.k.k.k.k.k.z.k.k.k.k.k.f.w.w.:.$.%.+.+.&.n.V.V.x.a.y.#.a.s.q.q.j.D.D.D.D.K.K.K.K.K.",
"K.K.K.K.D.D.x.k.k.k.k.k.k.k.k.k.k.k.x.b.V.n.n.S.D.D.D.D.D.D.D.D.H.H.D.D.D.H.D.D.D.D.D.K.K.K.K.K.",
"K.K.K.K.K.D.x.k.k.k.k.k.k.x.v.n.V.S.D.D.H.D.D.H.D.D.D.D.D.D.D.D.D.D.D.D.D.D.D.D.D.D.D.K.K.K.K.K.",
"K.K.K.K.K.K.K.K.K.K.K.K.K.K.K.K.K.K.K.K.K.K.K.K.K.K.K.K.K.K.K.K.D.D.D.D.D.D.D.D.D.K.K.K.K.K.K.K.",
"K.K.K.K.K.K.K.K.K.K.K.K.K.K.K.K.K.K.K.K.K.K.K.K.K.K.K.K.K.K.K.K.K.K.K.K.K.K.K.K.K.K.K.K.K.K.K.K.",
"K.K.K.K.K.K.K.K.K.K.K.K.K.K.K.K.K.K.K.K.K.K.K.K.K.K.K.K.K.K.K.K.K.K.K.K.K.K.K.K.K.K.K.K.K.K.K.K.",
"K.K.K.K.K.K.K.K.K.K.K.K.K.K.K.K.K.K.K.K.K.K.K.K.K.K.K.K.K.K.K.K.K.K.K.K.K.K.K.K.K.K.K.K.K.K.K.K.",
"K.K.K.K.K.K.K.K.K.K.K.K.K.K.K.K.K.K.K.K.K.K.K.K.K.K.K.K.K.K.K.K.K.K.K.K.K.K.K.K.K.K.K.K.K.K.K.K.",
"K.K.K.K.K.K.K.K.K.K.K.K.K.K.K.K.K.K.K.K.K.K.K.K.K.K.K.K.K.K.K.K.K.K.K.K.K.K.K.K.K.K.K.K.K.K.K.K.",
"K.K.K.K.K.K.K.K.K.K.K.K.K.K.K.K.K.K.K.K.K.K.K.K.K.K.K.K.K.K.K.K.K.K.K.K.K.K.K.K.K.K.K.K.K.K.K.K.",
"K.K.K.K.K.K.K.K.K.K.K.K.K.K.K.K.K.K.K.K.K.K.K.K.K.K.K.K.K.K.K.K.K.K.K.K.K.K.K.K.K.K.K.K.K.K.K.K.",
"K.K.K.K.K.K.K.K.K.K.K.K.K.K.K.K.K.K.K.K.K.K.K.K.K.K.K.K.K.K.K.K.K.K.K.K.K.K.K.K.K.K.K.K.K.K.K.K.",
"K.K.K.K.K.K.K.K.K.K.K.K.K.K.K.K.K.K.K.K.K.K.K.K.K.K.K.K.K.K.K.K.K.K.K.K.K.K.K.K.K.K.K.K.K.K.K.K.",
"K.K.K.K.K.K.K.K.K.K.K.K.K.K.K.K.K.K.K.K.K.K.K.K.K.K.K.K.K.K.K.K.K.K.K.K.K.K.K.K.K.K.K.K.K.K.K.K."
};
