/* XPM */
static char * hole_xpm[] = {
"32 32 70 1",
" 	c #58C7FB",
".	c #4DC4FB",
"+	c #4CC3FB",
"@	c #4BC3FB",
"#	c #4AC3FB",
"$	c #4AC2FB",
"%	c #4CC4FB",
"&	c #55C6FB",
"*	c #41C0FB",
"=	c #42C0FB",
"-	c #B7BDC8",
";	c #CBCFD5",
">	c #D5D8DC",
",	c #D5D8DD",
"'	c #CFD4DB",
")	c #BBC2CC",
"!	c #BBC1CA",
"~	c #B6BCC6",
"{	c #B2BAC3",
"]	c #82899A",
"^	c #777F8F",
"/	c #8990A0",
"(	c #8F96A5",
"_	c #8C93A4",
":	c #8890A2",
"<	c #818A9C",
"[	c #AFB7C0",
"}	c #B3BAC3",
"|	c #AFB6C1",
"1	c #858D9B",
"2	c #6D7586",
"3	c #5D6574",
"4	c #575E6E",
"5	c #656C7C",
"6	c #6B7183",
"7	c #6C7684",
"8	c #5C6273",
"9	c #515766",
"0	c #32343D",
"a	c #25242B",
"b	c #25252D",
"c	c #515866",
"d	c #5B6271",
"e	c #8F97A4",
"f	c #838794",
"g	c #31333E",
"h	c #212129",
"i	c #201F26",
"j	c #1F1D24",
"k	c #202027",
"l	c #828894",
"m	c #C3C9D2",
"n	c #797B84",
"o	c #302F36",
"p	c #1C1B21",
"q	c #1D1C24",
"r	c #1F1E26",
"s	c #33323A",
"t	c #787B83",
"u	c #5A5C65",
"v	c #1B1A20",
"w	c #5A5D65",
"x	c #757881",
"y	c #BBC3CB",
"z	c #73767F",
"A	c #676870",
"B	c #676A71",
"C	c #727379",
"D	c #75767B",
"E	c #53C5FB",
" .++@@#$$$$$$@@@@@+%%%%%......%&",
"+*============================*$",
"+==============================$",
"@==============================$",
"@==============================$",
"@==============================$",
"@==============================$",
"@==============================$",
"#==============================$",
"$==============================$",
"$==============================$",
"$===========-;>,')!~===========$",
"#========={{]^/(_:<][}=========$",
"@========|123456665371[========$",
"@========(890abbbbb0cde========$",
"@========fghijjjjjjkhglm=======$",
"@========nopqqikqrrrqst========$",
"@=========tuoqpvqpvowx=========$",
"+==========yzABCDCAxy==========$",
"+==============================$",
"%==============================$",
"%==============================$",
"%==============================$",
"%==============================$",
".==============================$",
".==============================$",
".==============================$",
".==============================$",
".==============================$",
".==============================$",
"%*============================*$",
"&$$$$$$$$$$$$$$$$$$$$$$$$$$$$$$E"};
