/* XPM */
static char *result[] = {
/* columns rows colors chars-per-pixel */
"48 63 80 1 ",
"  c #6F472C",
". c #72492D",
"X c #7E4D2C",
"o c #7E522B",
"O c #754D34",
"+ c #775037",
"@ c #7A523B",
"# c #7E5741",
"$ c #7F5842",
"% c #C73434",
"& c #C83634",
"* c #CB3B33",
"= c #834F2C",
"- c #85512C",
"; c #88502C",
": c #92552C",
"> c #9E5B2C",
", c #A65E2C",
"< c #AA5E2C",
"1 c #AA612C",
"2 c #A76F29",
"3 c #AE6F29",
"4 c #B3622C",
"5 c #B9642C",
"6 c #BC682C",
"7 c #A97129",
"8 c #D95D2F",
"9 c #CD4232",
"0 c #D24532",
"q c #D44932",
"w c #D94D31",
"e c #D45330",
"r c #DB5331",
"t c #E05730",
"y c #E35B30",
"u c #C7692C",
"i c #DC632E",
"p c #D26E2C",
"a c #DF6B2D",
"s c #D7722C",
"d c #DC712C",
"f c #E7602F",
"g c #EA652F",
"h c #E16E2D",
"j c #EE6A2E",
"k c #F06D2E",
"l c #E4722C",
"z c #E9762C",
"x c #E5782B",
"c c #ED7D2B",
"v c #F5742D",
"b c #F67A2C",
"n c #FC7E2C",
"m c #815B45",
"M c #855E4A",
"N c #87614D",
"B c #89624F",
"V c #8C6654",
"C c #CB8927",
"Z c #DB8B27",
"A c #DA8429",
"S c #D69126",
"D c #D99326",
"F c #EA8429",
"G c #EE8C28",
"H c #F7842B",
"J c #FC822B",
"K c #F68E29",
"L c #FC8B2A",
"P c #ED9327",
"I c #E39A25",
"U c #F29527",
"Y c #F59C26",
"T c #FC9B27",
"R c #F09128",
"E c #FD9328",
"W c #F6A226",
"Q c #FBA425",
"! c #FCAC24",
"~ c None",
/* pixels */
"~~~~~~~~~~~~~~~~~~~~nn~~~~~~~~~~~~~~~~~~~~~~~~~~",
"~~~~~~~~~~~~~~~~~~~~nnn~~~~~~~~~~~~~~~~~~~~~~~~~",
"~~~~~~~~~~~~~~~~~~~~~nnn~~~~~~~~~~~~~~~~~~~~~~~~",
"~~~~~~~~~~~~~~~~~~~~~nnnn~~~~~~~~~~~~~~~~~~~~~~~",
"~~~~~~~~~~~~~~~~~~~~~~nnnn~~~~~~~~~~~~~~~~~~~~~~",
"~~~~~~~~~~~~~~~~~~~~~~nnnnn~~~~~~~~~~~~~~~~~~~~~",
"~~~~~~~~~~~~~~~~~~~~~~nnnnn~~~~~~~~~~~~~~~~~~~~~",
"~~~~~~~~~~~~~~~~~~~~~~~nnnnJ~~~~~~~~~~~~~~~~~~~~",
"~~~~~~~~~~~~~~~~~~~~~~~nnnnnn~~~~~~~~~~~~~~~~~~~",
"~~~~~~~~~~~~~~~~~~~~~~~nnnnnn~n~~~~~~~~~~~~~~~~~",
"~~~~~~~~~~~~~~~~~~~~~~nJnnnJnn~n~~~~~~~~~~~~~~~~",
"~~~~~~~~~~~~~~~~~~~~~~nnnnnnnn~n~~~~~~~~~~~~~~~~",
"~~~~~~~~~~~~~~~~~~~~~~nnnnnnnvgnn~~~~~~~~~~~~~~~",
"~~~~~~~~~~~~~~~~~~~~~ynnnnnnvybnn~~~~~~~~~~~~~~~",
"~~~~~~~~~~~~~~~~~~~~~qknnnnbwgnngb~~~~~~~~~~~~~~",
"~~~~~~~~~~~~~~~~~&~~ntqvnnnt0bnngy~~~~~~~~~~~~~~",
"~~~~~~~~~~~~~~~~~&~~ny*yJnH9qnnnk0~~~~~~~~~~~~~~",
"~~~~~~~~~~~~~~~~&&~nng&0bEWqqnnnj*w~~~~~~~~~~~~~",
"~~~~~~~~~~~~~~~~&*~nny&&z!Y00bnny&0~~~~~~~~~~~~~",
"~~~~~~~~~~~~~~~~&0~nJr&9R!R**vnnq&&~~~~~~~~~~~~~",
"~~~~~~~~~~~~~~~~&*knnw%8!!K**jnk*&&y~~~~~~~~~~~~",
"~~~~~~~~~~~~~~~&&&ynv0&F!!F&&ynw&&&0~~~~~~~~~~~~",
"~~~~~~~~~~n~~~~&&&0bv*0Y!!F&&wj*&&&&~nn~~~~~~~~~",
"~~~~~~~~~~nn~~~*&&&gg&eQ!!F&&*0&*&&&~nn~~~~~~~~~",
"~~~~~~~~~~nn~~~he&&0t&i!!!G&&&&9i&&%~nnn~~~~~~~~",
"~~~~~~~~~~nnn~~0Fi*&*&x!!!P*&&&9Gq&&~Jnn~~~~~~~~",
"~~~~~~~~~~nnnn~&i!h*&&F!!!Y9&&&q!l%&jnnnn~~~~~~~",
"~~~~~~~~~~nnnn~&qYQi&&G!!!!q%&&a!U**jJnnn~~~~~~~",
"~~~~~~~~~nnnnnn0*P!Wq*P!!!!a%&*G!!e&kJnnnn~~~~~~",
"~~~~~~~~~nnnnnn0&G!!F9P!!!!P9%i!!!l&gnnnnn~~~~~~",
"~~~~~~~~nnnnnnbq*G!!QiU!!!!!xqP!!!F*gnnnnnn~~~~~",
"~~~~~~~~nnnnnnnq&G!!!GY!!!!!!Y!!!!K*gnnnJnn~~~~~",
"~~~~~~~nnnnnJJn0*P!!!!!!!!!!!!!!!!P9gnJTJnn~~~~~",
"~~~~~~~nnnnJEJbw9W!!!!!!!!!!!Q!!!!Y*gE!TJnnn~~~~",
"~~~~~~~nnnnETnn0eW!!!!!!!!!!!!!!!!P*z!!Lnnnn~~~~",
"~~~~~~nnnnJQQnn0a!!!!!!!!!!!!!!!!!G8Q!QJnnnn~~~~",
"~~~~~~JnnnL!Qnn0F!!!!!!!!!!!!!!!!!GU!!Tnnnnnn~~~",
"~~~~~~nnnnT!QLbrY!!!!!!!!!!!!!!!!!W!!!Lnnnnnn~~~",
"~~~~~~nnnJT!!Tbz!!!!!!!!!!!!!!!!!!!!!!Jnnnnnn~~~",
"~~~~~~nnnJQ!!!TT!!!!!!!!!!!!!!!!!!!!!QJnJnnnn~~~",
"~~~~~~nnnJQ!!!!!!!!!!!!!!!!!!!!!!!!!!TnnnnJnn~~~",
"~~~~~~nnnJQ!!!!!!!!!!!!!Q!!!!!!!!!!!!Ennnnnnn~~~",
"~~~~~~bnnJQ!!!!!!!!!!!!!!!!!!!!!!!!!!Ennnnnn~~~~",
"~NO   4nnJT!!!!!!!!!!!!!!!!!!!!!!!!!!Lnnnnnz;OM~",
"VV@.  XpJnE!!!!!!!!!!!!!!!!!!!!!!!!!!Lnnnnb< +VV",
"VVM    =ubLQ!!!!!!!!!!!!!!!!!!!!!!!!QJnnnz,. #VV",
"VVM     .:5Z!!!!!!!!!!!!!!!!!!!!!!!!Tndu<-   mVV",
"VVM        oS!!!!!!!!!!!!!!!!!!!!!!QJsX      #VV",
"VV@.        -C!!!!!!!!!!!!!!!Q!!!!QEb:   .   +VV",
"~~~~~~~~~    .2I!!!!!!!!!!!!!!!!!QEa:~~~~~~~~~~~",
"~~~~~~~        o7DW!!!!!!!!!!!QQTF5=   ~~~~~~~~~",
"~~~~.  .         .3ZAPYQQQQTTRFd4;        ~~~~~~",
"~~~V@      .     ~~ .=:,,16~~~;.         +B~~~~~",
"~~~VV+        ~~~~~        ~~~~~  .    .OBVV~~~~",
"~~~VVM    . ~~~~~~~       ~~~~~~~~      mVV~~~~~",
"~~~VVVO   ~~~~~~~~~       ~~~~~~~~~~   .NVV~~~~~",
"~~~~VVO ~~~~~~~~~~   ..   ~~~~~~~~~~~~ OBV~~~~~~",
"~~~~~V~~~~~~~~~~~~.+MBMmO ~~~~~~~~~~~~~~V~~~~~~~",
"~~~~~~~~~~~~~~~~~~MVVVVVV$~~~~~~~~~~~~~~~~~~~~~~",
"~~~~~~~~~~~~~~~~~~VVVVVVVV~~~~~~~~~~~~~~~~~~~~~~",
"~~~~~~~~~~~~~~~~~~VVVVVVVV~~~~~~~~~~~~~~~~~~~~~~",
"~~~~~~~~~~~~~~~~~~VVVVVVV~~~~~~~~~~~~~~~~~~~~~~~",
"~~~~~~~~~~~~~~~~~~~~VVVV~~~~~~~~~~~~~~~~~~~~~~~~"
};
