/* XPM */
static char *flamme2[] = {
/* columns rows colors chars-per-pixel */
"32 32 255 2 ",
"   c #58C7FB",
".  c #4DC4FB",
"X  c #4CC3FB",
"o  c #4BC3FB",
"O  c #4AC3FB",
"+  c #4AC2FB",
"@  c #4CC4FB",
"#  c #55C6FB",
"$  c #41C0FB",
"%  c #42C0FB",
"&  c #9BA590",
"*  c #7BBCD2",
"=  c #DE8B3F",
"-  c #E38C3C",
";  c #4EC4FA",
":  c #82C7DC",
">  c #B4A37A",
",  c #F38933",
"<  c #F38722",
"1  c #D88A3F",
"2  c #A8A28D",
"3  c #6CC8EE",
"4  c #CB9257",
"5  c #F88C31",
"6  c #F7892A",
"7  c #C5A071",
"8  c #67C5EB",
"9  c #BE9E7A",
"0  c #88C8DB",
"q  c #E48E3B",
"w  c #F68829",
"e  c #FE9132",
"r  c #A6A995",
"t  c #DF8940",
"y  c #E59142",
"u  c #5AC6F1",
"i  c #E88B2B",
"p  c #F28B22",
"a  c #F38724",
"s  c #A6B7AD",
"d  c #D88E4D",
"f  c #E88831",
"g  c #FA9023",
"h  c #FA8F31",
"j  c #EA8223",
"k  c #EB8822",
"l  c #BD9E7D",
"z  c #80C5DF",
"x  c #CFB799",
"c  c #E28738",
"v  c #F58E25",
"b  c #EE8A2A",
"n  c #F28D33",
"m  c #EE8321",
"M  c #EE9036",
"N  c #9AB2A8",
"B  c #B8BCAB",
"V  c #F08E23",
"C  c #FC8A2A",
"Z  c #F48830",
"A  c #F9A83C",
"S  c #FFB84C",
"D  c #E29634",
"F  c #8EB3B4",
"G  c #D19252",
"H  c #EB8D35",
"J  c #B7B49C",
"K  c #F28D21",
"L  c #F98B2A",
"P  c #FC993C",
"I  c #FFBD4E",
"U  c #FFB94B",
"Y  c #EC9933",
"T  c #F69336",
"R  c #F98927",
"E  c #E5852F",
"W  c #9BC3D2",
"Q  c #D59146",
"!  c #EA9231",
"~  c #F18B1F",
"^  c #FFBE53",
"/  c #FFC657",
"(  c #FFBB4B",
")  c #E58820",
"_  c #EC8924",
"`  c #EC892C",
"'  c #F59133",
"]  c #D39A67",
"[  c #9FBFBD",
"{  c #58C5F3",
"}  c #CDB496",
"|  c #EC8D31",
" . c #EE8E27",
".. c #EA9622",
"X. c #FDC74D",
"o. c #FECC51",
"O. c #FFC24B",
"+. c #E48D23",
"@. c #EA8E29",
"#. c #EC8D2F",
"$. c #E98B29",
"%. c #DD9348",
"&. c #BCA076",
"*. c #57C5F1",
"=. c #E49C58",
"-. c #F78A37",
";. c #F3872D",
":. c #F29B28",
">. c #F7C846",
",. c #F6CE4B",
"<. c #FFC449",
"1. c #E18C21",
"2. c #F09932",
"3. c #F49833",
"4. c #EC8923",
"5. c #E28C35",
"6. c #4CC3FA",
"7. c #E88C37",
"8. c #E1A65D",
"9. c #D6A569",
"0. c #F48728",
"q. c #F48627",
"w. c #F3902A",
"e. c #F6C544",
"r. c #EFC845",
"t. c #F6C141",
"y. c #FDBD39",
"u. c #FFC648",
"i. c #F18522",
"p. c #F18626",
"a. c #9DC4CF",
"s. c #FD8723",
"d. c #FB9A2F",
"f. c #F58F2A",
"g. c #EC902B",
"h. c #EB8F2A",
"j. c #F2962F",
"k. c #FFBF44",
"l. c #F7C03F",
"z. c #F8C143",
"x. c #FDC651",
"c. c #FDC24E",
"v. c #EB9524",
"b. c #EC8B20",
"n. c #F58A28",
"m. c #A5B1A3",
"M. c #AFBCB7",
"N. c #FF8822",
"B. c #FFAE3D",
"V. c #FFA83E",
"C. c #E59429",
"Z. c #E4972B",
"A. c #EE9E2F",
"S. c #FFC341",
"D. c #FBC143",
"F. c #F9C450",
"G. c #F8BF4C",
"H. c #E99A24",
"J. c #EA8D23",
"K. c #F18926",
"L. c #B99F77",
"P. c #B5BAA9",
"I. c #FEC34F",
"U. c #F9C14A",
"Y. c #FFC74E",
"T. c #FAC247",
"R. c #FFC347",
"E. c #FDC242",
"W. c #FFC243",
"Q. c #FEC343",
"!. c #FFBF4A",
"~. c #FFA544",
"^. c #EE8921",
"/. c #C99861",
"(. c #63C7F2",
"). c #A8B9B2",
"_. c #FFBF48",
"`. c #FBBF45",
"'. c #FFCA4F",
"]. c #F9BE46",
"[. c #FFC54D",
"{. c #FFC34B",
"}. c #FEC246",
"|. c #FEC544",
" X c #FEC542",
".X c #FFC447",
"XX c #FFBD4F",
"oX c #ED8D1F",
"OX c #DA9751",
"+X c #63C7EF",
"@X c #5EC5F3",
"#X c #F6943B",
"$X c #FFBD47",
"%X c #FFBF47",
"&X c #FFC84F",
"*X c #FFC952",
"=X c #FFCA55",
"-X c #FAC14D",
";X c #FAC24B",
":X c #FEC449",
">X c #FFC547",
",X c #FFC643",
"<X c #FFC740",
"1X c #FFC640",
"2X c #F1921E",
"3X c #D7914F",
"4X c #49C2FB",
"5X c #D99250",
"6X c #E4922C",
"7X c #FDBB4B",
"8X c #FBC34A",
"9X c #F5BD42",
"0X c #F6C43F",
"qX c #FECD44",
"wX c #F8C73C",
"eX c #FBC73D",
"rX c #FFC641",
"tX c #FFC440",
"yX c #FFBB32",
"uX c #E98C2C",
"iX c #A2C4CF",
"pX c #A6AEA0",
"aX c #D68A32",
"sX c #DA932B",
"dX c #FFC450",
"fX c #FBBD44",
"gX c #FFC945",
"hX c #F7C339",
"jX c #FCC83E",
"kX c #FEC63D",
"lX c #FFC441",
"zX c #FFC343",
"xX c #FFC146",
"cX c #FFAC32",
"vX c #DD8C3B",
"bX c #52C5FA",
"nX c #8BC7D8",
"mX c #D7A067",
"MX c #DA8D3B",
"NX c #DA9039",
"BX c #E69C3B",
"VX c #F1A83F",
"CX c #F4AB42",
"ZX c #EBA23B",
"AX c #DC9233",
"SX c #DC8F33",
"DX c #E29746",
"FX c #D6934F",
"GX c #5AC5F4",
"HX c #64C8F0",
"JX c #75C6E3",
"KX c #75C6E4",
"LX c #6EC9EA",
"PX c #52C5F7",
"IX c #53C5FB",
/* pixels */
"  . X X o o O + + + + + + o o o o o X @ @ @ @ @ . . . . . . @ # ",
"X $ % % % % % % % % % % % % % % % % % % % % % % % % % % % % $ + ",
"X % % % % % % % % % % % % % % % % % % % % % % % % % % % % % % + ",
"o % % % % % % % % % % % % % % % % % % % % % % % % % % % % % % + ",
"o % % % % % % % % % % % % % % % % % % & % % % % % % % % % % % + ",
"o % % % % % % % % % % % % % % % % * = - % % % % % % % % % % % + ",
"o % % % % % % % % % % % % ; % : > , < 1 % % % % % % % % % % % + ",
"o % % % % % % % % % % % 2 3 % 4 5 6 7 8 % % % % % % % % % % % + ",
"O % % % % % % % % % % % 9 0 % q w e r % % % % % % % % % % % % + ",
"+ % % % % % % % % % % % t y u i p a s % % % % % % % % % % % % + ",
"+ % % % % % % % % % % % d f g h j k l z % % % % % % % % % % % + ",
"+ % % % % % % % % % % % x c v b n m M N % % % % % % % % % % % + ",
"O % % % % % % % % % % % % B V C Z A S D F G H % % % % % % % % + ",
"o % % % % % % % % % % % % J K L P I U Y T R E % % % % % % % % + ",
"o % % % % % % % % % W % Q ! ~ ^ / ( ) _ ` ' ] % % % % % % % % + ",
"o % % % % % % % % [ { } |  ...X.o.O.+.@.#.$.%.% % % % % % % % + ",
"o % % % % % % % % &.*.=.-.;.:.>.,.<.1.2.3.4.5.% % % % % % % % + ",
"o % % % % % % % 6.7.8.9.0.q.w.e.r.t.y.u.$.i.p.% % % % % % % % + ",
"X % % % % % % % a.s.d.f.g.h.j.k.l.z.x.c.v.b.n.m.% % % % % % % + ",
"X % % % % % % % M.N.B.V.C.Z.A.k.S.D.F.G.H.J.K.L.% % % % % % % + ",
"@ % % % % % % % P.p.I.U.Y.T.R.E.W.Q.Q.Q.!.~.^./.(.% % % % % % + ",
"@ % % % % % % % ).p._.`.'.'.].[.{.}.|. X.XXXoXOX+X% % % % % % + ",
"@ % % % % % % % @X#X$X%X&X*X=X-X;X:X>X,X<X1X2X3X4X% % % % % % + ",
"@ % % % % % % % % 5X6X7X8X9X0XqXwXeX<XrXtXyXuXiX% % % % % % % + ",
". % % % % % % % % pXaXsXdXfXgXhXjXkXlXzXxXcXvXbX% % % % % % % + ",
". % % % % % % % % % nXmXMXNXBXVXCXZXAXSXDXFXGX% % % % % % % % + ",
". % % % % % % % % % % % % % HXJXKXLXPX% % % % % % % % % % % % + ",
". % % % % % % % % % % % % % % % % % % % % % % % % % % % % % % + ",
". % % % % % % % % % % % % % % % % % % % % % % % % % % % % % % + ",
". % % % % % % % % % % % % % % % % % % % % % % % % % % % % % % + ",
"@ $ % % % % % % % % % % % % % % % % % % % % % % % % % % % % $ + ",
"# + + + + + + + + + + + + + + + + + + + + + + + + + + + + + + IX"
};
