/* XPM */
static char *be6a444169434ef0e5ea0d1511f96b3dzxuiyYWv6uZQWuqv[] = {
/* columns rows colors chars-per-pixel */
"48 48 153 2 ",
"   c black",
".  c #3D92CA",
"X  c #4396CE",
"o  c #4C9CCC",
"O  c #509ECC",
"+  c #4699D2",
"@  c #4C9DD4",
"#  c #529FD5",
"$  c #57A4CE",
"%  c #4EA1D5",
"&  c #4FA2D8",
"*  c #53A2D3",
"=  c #5CA6D4",
"-  c #5EA8D7",
";  c #52A4D9",
":  c #5DA9DB",
">  c #63AAD5",
",  c #6BAED7",
"<  c #64ACDA",
"1  c #69AEDA",
"2  c #68B2D5",
"3  c #67B2DC",
"4  c #6CB3DC",
"5  c #6CB9DF",
"6  c #79BAD6",
"7  c #73B5DD",
"8  c #7BB7DC",
"9  c #74B9DD",
"0  c #7ABBDE",
"q  c #63AFE3",
"w  c #65B2E4",
"e  c #6DB4E1",
"r  c #6DBAE1",
"t  c #6EB6E8",
"y  c #72B6E2",
"u  c #78B7E3",
"i  c #74BBE4",
"p  c #7ABDE4",
"a  c #72B7E9",
"s  c #75BCEA",
"d  c #7ABEEA",
"f  c #7CBFF3",
"g  c #75C1E6",
"h  c #7BC1E5",
"j  c #77C1E8",
"k  c #7CC3EB",
"l  c #7FCAEE",
"z  c #7DC2F2",
"x  c #7EC9F1",
"c  c #81BEE2",
"v  c #80BDE9",
"b  c #83C3DE",
"n  c #82C2E6",
"m  c #85CAE7",
"M  c #8ACAE6",
"N  c #83C5EC",
"B  c #8AC6EB",
"V  c #85C9ED",
"C  c #8ACAEE",
"Z  c #92CDED",
"A  c #91D1ED",
"S  c #83C5F1",
"D  c #88C7F3",
"F  c #85CBF2",
"G  c #8CCCF3",
"H  c #85CCFA",
"J  c #8CCEF9",
"K  c #91CEF4",
"L  c #91CEF9",
"P  c #8ED1F5",
"I  c #8ED2FA",
"U  c #93D2F5",
"Y  c #9AD6F5",
"T  c #9DD8F6",
"R  c #91D6FE",
"E  c #97D5FC",
"W  c #95D6FC",
"Q  c #97D7FD",
"!  c #96D6FC",
"~  c #97D6FF",
"^  c #94D4FA",
"/  c #99D5F9",
"(  c #9BD7F9",
")  c #98D7FA",
"_  c #99D7FC",
"`  c #98D6FD",
"'  c #99D7FE",
"]  c #9AD6FB",
"[  c #97D9F9",
"{  c #95D9FF",
"}  c #96D8FC",
"|  c #98D9F9",
" . c #9AD9F8",
".. c #9BDAF9",
"X. c #98D8FB",
"o. c #99D8FB",
"O. c #9AD9FA",
"+. c #99DAFA",
"@. c #9CD9F8",
"#. c #9ED9F9",
"$. c #9DDAF9",
"%. c #9DDCFB",
"&. c #98D8FC",
"*. c #99D9FC",
"=. c #9AD9FC",
"-. c #9AD8FD",
";. c #99DAFF",
":. c #9ADAFE",
">. c #9BDBFE",
",. c #9BDBFF",
"<. c #9FDBFD",
"1. c #9CDBFE",
"2. c #9DDBFF",
"3. c #9CD8FC",
"4. c #98DCFF",
"5. c #9DDCFF",
"6. c #9EDDFE",
"7. c #9FDFFF",
"8. c #9CDAFD",
"9. c #A6DEF7",
"0. c #A5DDF4",
"q. c #A0D7FE",
"w. c #A1DAF8",
"e. c #A2DDFB",
"r. c #A1DEFD",
"t. c #A3DEFC",
"y. c #A1DDFF",
"u. c #A2DEFF",
"i. c #A2DDFD",
"p. c #9FE0FF",
"a. c #A5E1F9",
"s. c #A5E1FB",
"d. c #A3E0FC",
"f. c #A1E0FF",
"g. c #A3E3FE",
"h. c #A5E0FE",
"j. c #A4E1FF",
"k. c #A7E0FE",
"l. c #A6E3FF",
"z. c #A4E0FC",
"x. c #A2E4FF",
"c. c #A3E5FF",
"v. c #A5E1FD",
"b. c #AAE2F9",
"n. c #AEE2FA",
"m. c #ABE5FE",
"M. c #A9E9FF",
"N. c #ACEAFF",
"B. c #AFECFF",
"V. c #ABE8FF",
"C. c #B0E8F9",
"Z. c #B2EBFF",
"A. c #B9F2FF",
/* pixels */
"                                                                                                ",
"                                                                                                ",
"                                                                                                ",
"                                                                                                ",
"                                                                                                ",
"                                                                                                ",
"                                                                                                ",
"                                                                                                ",
"+ X X & % * o O = < i V p n c K 1.U C G / / @.h.n.C.B.` ~ U P I U U C G E ^ G G N G G S S C U y.",
"+ + + ; o o o $ 4 7 k N 7 p C U -.U G U U Y T w.9.b.a.y.E E G I ....G G ~ E K C V P G S S G E h.",
"X . . ; o * = < 7 h V n 0 p G U ..U U E U @.t.t.N.h.[ h...^ G F -.-.G G E -.E U G U ^ G G U ..y.",
"+ . X : * > > 4 c U N p C N B U [ U U U U ..h.h.c.E / a.j.G H l E -.P G E -.5.1.E E ^ ^ G U E / ",
"+ + @ w - > , p K 1.N c B N m ..E G P P C U %.@.m G -.M.j.S H F ^ -.^ G U E 5.y.5.E U E ^ ^ E / ",
"X X o < e y p D C B n N p n C ..U C G G C G U U C P E c.[ G x x F { R I ^ E 5.j.p...U ^ ~ ~ -.1.",
"@ @ O < s s p k p 0 V C n n U ..P C V G G U E -.4.^ V D F P l k V I I J P ^ E ` ..5./ U ~ ` ~ -.",
"@ # = < S k p p h h I G U G [ j.U G V V G P E 5.R V h 3 k V h s V I I G G G G G U y.5.^ E ~ ^ ^ ",
"o o - r S p i y 5 k D G G E 5.U U P V F F G I ^ F k g r 5 k S h k H H F S l S G V W E G P ^ ^ I ",
"; : < y k p p i y V S V V V C P y...E G C h m C V h i 5 5 g x S h H F l h l D H G G G G E U G P ",
": w e r p y k p k J D N S p k ^ t.[ -.C V 9 h m F N k k k j i i S H S l V D G V D V V G ~ ^ G G ",
": t e y p y S S S J S N S N S { h.Y U C D N m V V k h k k i 5 4 k x S S l V V i h V D G ^ ~ P C ",
"- e < s k i G I G U G G G G E ~ m.5.U G V F k g 7 p h h g j j k 4 l I G h p k i i S D V P ~ P V ",
"< y y N J V ~ 1.5.-.-.-.E E -.G Y j.[ E n h i r 9 i h h l S F V g l G I F p h l h k p k G G V N ",
"s d N G -.E 1.y.t.y.5.-.G C U C Y m.h.M.A 0 h k V h i i h V F k F k p G P k i h h i i p D V N V ",
"u p N V ^ K K K T y.1./ G V K ~ h.V.9.Z.a.M G S S h k V V F G n k V p p V P V i g h p k V V V G ",
"7 y s S -.G C G ] y.Y C G -.^ U ~ 1.b.n.A.6 g x D h F G G V S h h h V p h V C 9 p N V G C p n K ",
"1 y d N ^ U K ` ] @./ -.1.G C U -./ m.Z.Z.b 4 g k D P k p F I i V l l g h p V E U K B N n p n G ",
"3 s d p G j.@.q.^ y.j.U ^ G U U ^ K t.Z.V.T 0 i i i D F h G F 9 D k i i h 9 h E [ ] U U G N n N ",
"1 t s u C m.q.q.^ ^ ` K B G -.-.R U y.a.a.N.C 7 i 5 g F p h V F V p 5 r g i 9 h Y w.] [ K N n p ",
"k x H D G 5.U 1.S N G ~ V G -.U G G -.@.t.m.y.n i i h l 4 i F I S h i i 5 i p p Z T w.] K N n p ",
"s s z S S G V G s d G -.G ` -.C V V ^ 1.y.1.m.[ p i i h i i h g D l l l i 9 i i c B U Y G C G C ",
"S z S S z p y y k s C E E U U E G G G ~ U U y.@.P k 5 r i i i 5 h V V S h p 9 4 9 0 n n p h G U ",
"u a f f z a d z r V G N K U E U ~ G S G V U -.@.^ G k 5 i i i 5 2 V D V N V i i 9 p n n 0 9 c c ",
"q : z s s z S S D S S N G 5.E B G L S k z k G ^ G V V V d 4 4 i i i k p k V 9 h h p 9 h n p p p ",
"q : t a e d S J G S V p V E / E G V k a a s s G N k N G S i 4 a i h V d k k 7 4 N N n m n 0 7 , ",
"< < a z d z p N G V V N V G K E E G k i a a i V S p k H D i 5 r i k S k p p k k p N n n p p p 9 ",
"a a s z S S p d G G G G C N V G U U N k h s S D S i 7 a s a r 3 3 s S l s i s p N h 7 7 p N p 7 ",
"D d y e z D S S K K K U G N V G G ^ G G S k D V S s a y r r i a > 1 y h k p y , 4 p h 0 7 0 p c ",
"L N u 1 s S G G G G K ` ^ G G G G V G G G J d u y s s r < < 3 r 1 < < 3 i p p p 4 4 7 7 p N n c ",
"q.K v u d N G L G K K ` ` K G S z e s N G J k s e s k s r 1 3 s k a r > 1 i p N i 7 u 7 7 p 0 n ",
"i.3.G L G G G L ^ ^ G K U G G V a 3 1 k V s V k 4 y i i i r y k k s a < 7 s 7 7 p 7 i p p u 8 c ",
"                                                                                                ",
"                                                                                                ",
"                                                                                                ",
"                                                                                                ",
"                                                                                                ",
"                                                                                                ",
"                                                                                                ",
"                                                                                                "
};
