/* XPM */
static char *d29f8767913645ec9b8854d3fdb1ed984rCndDxrtdhnk0c7[] = {
/* columns rows colors chars-per-pixel */
"48 32 161 2 ",
"   c #3D92CB",
".  c #3D96D2",
"X  c #4396CD",
"o  c #4D9CCC",
"O  c #539ECE",
"+  c #4094D0",
"@  c #459AD3",
"#  c #4C9CD2",
"$  c #54A1CF",
"%  c #59A2CD",
"&  c #4DA2D4",
"*  c #53A2D3",
"=  c #5CA6D6",
"-  c #5BA8D4",
";  c #50A3D9",
":  c #5CA6D9",
">  c #5EABDC",
",  c #63ABD5",
"<  c #63A7D8",
"1  c #64ACDC",
"2  c #6AAFD9",
"3  c #6DB1D7",
"4  c #66B0DC",
"5  c #6CB3DC",
"6  c #6FB8DC",
"7  c #70B5D4",
"8  c #73B5DD",
"9  c #78B6DD",
"0  c #73B9DE",
"q  c #7ABADD",
"w  c #64ADE1",
"e  c #6AAEE2",
"r  c #66B2E1",
"t  c #6DB4E2",
"y  c #6FBAE2",
"u  c #6DBBEC",
"i  c #73B7E2",
"p  c #74BBE4",
"a  c #7BBDE4",
"s  c #73B6E9",
"d  c #75BCEA",
"f  c #7BBEEA",
"g  c #7BBFF0",
"h  c #77C0E5",
"j  c #7AC1E6",
"k  c #77C1E8",
"l  c #7DC3EB",
"z  c #7EC8ED",
"x  c #7DC3F2",
"c  c #7FC9F0",
"v  c #81BEE3",
"b  c #80C3DE",
"n  c #82C2E6",
"m  c #88C4E6",
"M  c #89CCE7",
"N  c #83C4EC",
"B  c #89C7EB",
"V  c #83C9EE",
"C  c #8BCBED",
"Z  c #92CDED",
"A  c #93D3EF",
"S  c #83C5F1",
"D  c #89C7F2",
"F  c #85CBF2",
"G  c #8BCCF4",
"H  c #84C6F8",
"J  c #83C9FC",
"K  c #8CCDF9",
"L  c #92CEF3",
"P  c #91CFF9",
"I  c #86D0F5",
"U  c #8DD1F5",
"Y  c #8ED2F9",
"T  c #93D2F5",
"R  c #9AD5F5",
"E  c #97D8F5",
"W  c #9CD9F6",
"Q  c #97D6F9",
"!  c #94D5FB",
"~  c #96D4FB",
"^  c #95D6F8",
"/  c #90D3FD",
"(  c #91D5FC",
")  c #93D7FC",
"_  c #91D4FE",
"`  c #95D4FD",
"'  c #97D5FC",
"]  c #95D6FC",
"[  c #97D7FD",
"{  c #93D4FA",
"}  c #98D4F9",
"|  c #9AD6F8",
" . c #99D5FA",
".. c #9AD6FB",
"X. c #9AD6FB",
"o. c #97D9F9",
"O. c #95DAFB",
"+. c #95D9FC",
"@. c #97DDFF",
"#. c #96D8FF",
"$. c #98D9F9",
"%. c #9AD9F8",
"&. c #98D8FB",
"*. c #99DAFA",
"=. c #9BDAFB",
"-. c #9ADBFB",
";. c #9CDBFA",
":. c #9FDAFA",
">. c #9BDCFA",
",. c #98D8FC",
"<. c #99D9FC",
"1. c #99D9FD",
"2. c #9AD8FD",
"3. c #98DAFC",
"4. c #98DAFD",
"5. c #99DBFD",
"6. c #9ADAFD",
"7. c #98D9FF",
"8. c #9ADAFE",
"9. c #9BDBFE",
"0. c #9CD8FC",
"q. c #9FDBFD",
"w. c #9DDBFF",
"e. c #9DDCFD",
"r. c #9CDDFD",
"t. c #9EDDFC",
"y. c #9DDEFC",
"u. c #9DDEFE",
"i. c #9DDFFF",
"p. c #9FDEFF",
"a. c #9DDAFC",
"s. c #A3DDF5",
"d. c #A3DFF9",
"f. c #A0DDFA",
"g. c #A2DDFB",
"h. c #A2DFFB",
"j. c #A0DAFF",
"k. c #A1DBFF",
"l. c #A2DCFF",
"z. c #A3DEFE",
"x. c #A2DFFE",
"c. c #A5DEFC",
"v. c #A6DFFD",
"b. c #A2DDFD",
"n. c #9CE0FF",
"m. c #9DE1FF",
"M. c #9FE0FF",
"N. c #A4E0FA",
"B. c #A0E1FF",
"V. c #A7E0FE",
"C. c #A3E4FF",
"Z. c #A4E6FF",
"A. c #A5E2FE",
"S. c #A9E3FB",
"D. c #ABE3FA",
"F. c #AAE3FE",
"G. c #AFE8FF",
"H. c #AFE9FF",
"J. c #AFE9FF",
"K. c #B1E9FF",
"L. c #B3EAFF",
/* pixels */
"X @ X & & * o O , 4 i j a n B C :.Z B G Q R W c.D.K.H.g.^ ^ Y F U T D D [ Q G C D K G N f B  .k.",
"@ X X & o * o O , i N N a a B T W Z C G ^ R :.c.D.D.g.W ^ Q ( Y Q Q G G Q [ L G D K G F V G  .l.",
"+     & * $ % , 3 B C n a a B Q  .T L T Q w.l.V.H.N.W p.9.U F G *.9.T K Q 9.^ ^ U K K K K L  .k.",
".   X ; = % , 0 n T B q B C C ^ ^ ^ T T ^ p.B.g.g.W W C.p.F N F O.9.T G T 9.*.>.9.^ U { { T T w.",
"@ X # : 1 , 3 a Z R B q B C C Q T T G C U ^ W W M C *.C.n.F l G U #.{ G ^ 9.p.n.p.Q T { ( { T w.",
"@ X # 1 s 8 a N B G B n n n B *.T U C V G T ^ R C C O.n.@.G S S F { { K { #.r.n.p.*.Q ( [ [ 9.w.",
"@ X * 1 f f N N a N V C B n C p.^ G V F F T ^ :.^ U I F G G c j S / { G K ( Q E :.*.*.Q [ 9.9.9.",
"; # : 1 f f l p f a V { T C E B.^ C N F F G ^ p.^ V p 5 p F c p l Y Y K K K F C W w.9.Q Q #.Q T ",
"o * = t H f f 8 i l F F Y { Q 9.R C T F F U C T l l k 5 5 l G p l G G G S N G G G { #.{ K K K T ",
"* : 1 t S p a i 5 l S N N V D T :.T Q G N N j U V l p i p l c l F G l z l l G G G Y G K { [ P K ",
"> r t t l p j a l G K S N N V { B.Q Q G N j a F I z h k l k p p S G l l l S G S N F N F ( [ K D ",
"> r t t f i N F D K F N N N D { V.9.U V V F l l z z j l c h 5 6 0 I I l l F G i a N F F { { G G ",
"- 1 5 8 l a D U P K D D P { { #.p.p.^ C N V V h 6 j h h l l p j 5 V I I V l l 0 j V S F U { K G ",
"4 i p f K D [ 9.p.w. .,.p.9.{ { R V.g.T n j j p 0 j h p j S S S h j V Y I p a l j j p j G Y F N ",
"s f N D w.T w.w.l.l.:.Q ^ C B C W F.N.V.A j l j l l j j j F G l F l j G I l l l p p i p N F V N ",
"p f N D 2.L L L :.l.:.T C B G p.S.S.s.K.A.B V S F j l V V G G a z V p j V F V 0 p j j j N V F K ",
"5 t p K [ K V K W t.T C T Q P { Q W d.L.G.m i J N F C B F G S l p l l l N V N a a l V C N a N L ",
"5 i p V { Q T ^ :.l.*.^ T T K P 9.w.N.K.G.M 8 s j V F D V F z h F V j p p N G ( G G G C n v n C ",
"1 i p a G l.l.w.*.*.p.,.G G T P K ^ W D.H.W n 0 h p N F N V F j V l h i 0 p N U R T T G B n N B ",
"t d d a K l.V.c.T T Q Q B D Q Q { 9.t.c.F.V.M 7 p i l l p l U V l h p p 0 6 p l R R W R T B n a ",
"d f f S { ,. ...V V T { C G Q T F { 9.l.V.F.E b 5 y z l 5 0 F U S j i i 0 0 p l Z R :.:.T B n a ",
"x x l S K D N V a N K { { Q ^ G l N T Q w.A.A.W l i p p p j l p F l j j h p 0 0 v M T T C C G K ",
"d f f x S f i d i N G Y { T T T Y F K { L T :.R Y l 5 5 k l p 2 j N F V N j 0 3 8 v B n n n C L ",
"i d f f x f d d i S F F K L T w.Y N F K D L w.w.{ F p y y i y s 8 a V V N N l a p j N a q q a a ",
"> 1 x d f d H S V V N N G w.Q B U F c x x d S [ F G l j j t 5 p p p p a l N j i n q 9 j N n a 9 ",
"w w t d i d S K V V N N D `  .T T V f d d f l V S N S G S t 5 p j l N l l p 8 5 n n B N j 0 8 9 ",
"1 w e x g g d H D D V N V G L Q T C a p i p f l N p j G c s 5 5 i f l l a f l N B n n j a a 9 3 ",
"t s s H J H d v P K G G V N B L L T D f p a N H S 8 5 p p p d 4 5 d l l a p a a a a a 0 a N a 8 ",
"H S s e x S S D K L { T G N N G G T K D N N S S N p i 5 5 s d 5 , 5 p f f p 8 2 3 0 q 8 8 a n N ",
"P N i < d N G G D G L  .T G D K H S V K P K l i p f j t 2 2 t t , , 2 3 i f f a 8 8 8 8 8 a v N ",
"} C N f l S K L G G L T Q { G D l s i S K K f i 5 p f s t 2 5 d l s 5 , 2 i f f p 8 3 9 a v v a ",
"v.T K / S K K } P L L L T { K S u r t f S S N N i i t d l s t c l d t 5 5 i i 8 p p p a a 9 a n "
};
