/* XPM */
static char *result[] = {
/* columns rows colors chars-per-pixel */
"48 46 41 1 ",
"  c #A4CFDE",
". c #A5D0DF",
"X c #A9D1DF",
"o c #9FD9F0",
"O c #A5D3E1",
"+ c #ABD5E4",
"@ c #ADD8E6",
"# c #AEDAEA",
"$ c #B3D6E2",
"% c #B6D9E4",
"& c #BBDBE6",
"* c #B2DEED",
"= c #BBDFED",
"- c #A2DAF0",
"; c #ABDDF0",
": c #B0DFF0",
"> c #B5E0EF",
", c #B8E0ED",
"< c #B6E2F1",
"1 c #BDE4F2",
"2 c #C5DCE7",
"3 c #C1DFE9",
"4 c #CCDFE9",
"5 c #C2E1EC",
"6 c #C9E3EB",
"7 c #D2E4EC",
"8 c #DBE6ED",
"9 c #D3E8EF",
"0 c #C3E5F2",
"q c #CBE6F2",
"w c #CEE8F3",
"e c #D0E7F2",
"r c #D4E9F3",
"t c #DCEBF3",
"y c #E3EDF3",
"u c #ECEEF4",
"i c #F1EFF4",
"p c #E1F0F3",
"a c #F4F0F5",
"s c #FBF2F5",
"d c None",
/* pixels */
"dddddddddddddddddddo-o--oodddddddddddddddddddddd",
"dddddddddddddddddo--;:::;;----o-oddddddddddddddd",
"dddddddddddddddo--<1riuyr0<<<;;;-;----o-dddddddd",
"dddddddddddddo-;:0yiaurrq011111<<<<<::;----odddd",
"dddddddddddo--;0tiur0<<011111111111111<1<<;---dd",
"ddddddddddo-;1riir1<:1<111111111111111111111:;-d",
"ddddddddo-;:riat0<<<1<<1011111111111111111111<--",
"ddddddo-;:eusuq<<1<<<<11111111111111111111111<:-",
"ddddd--:qusst1<1<<<<1<<111111101111111110wq11<;-",
"dddo-;<tissy1<1:<<1<<<<1111111111111110ttq1111:-",
"do--:0issss0:1<<<<<<<<<1111111111110rput011111;-",
"oo;<qasssssyq111<<<<<<<111111110wryasuw111111<;o",
"o-:1issssssssiuyyytrwwwwwwwrttpaassst110111111;-",
"--:0ssssssassssssssssssassssssssssaw111111101<--",
"o-<0sssiywq0qqetyyiasssssssssssssar11111111111;d",
"o-*1isiq=<<<<<<<:110wwtyuasssssssu01111111111<-d",
"o->1usw<<<<>#>#<:::1<<<110russssst11111111111<-d",
"do;>uu<>;@OOOOOO#++*>><11110usssaw11111111111<-d",
"do;<pt<:OOOOOOOOOOOOOO@*1111tsssa011111111101<-d",
"do->tw>+OOOOOOOOOOOO.O.+@>11rsssp111111011111<-d",
"do->r0>.OOOOOOOOOOOOOO.XX+,10assr111111011111<;d",
"do-<01*.OOOO+#<<::::#@@@%+*10assw1111111111101-d",
"doo;11#OOO@#<<1<1<<<<<<<,,111uss011111111101w0-d",
"d-o*1<>@O#<<<<<<1<<<<<<110111psu001111111111rw-d",
"dd-;<<<*<<<<<<<<<<<<<<<111111psu011111111111te-d",
"dd-;<<<<<<<<<<<1<1<<<1<:11111tsy111111111111yr;d",
"ddo;<<<<<<<<<<<<<<<<<<<111111rst111111111111tt;o",
"ddo;<1<<<<1<1<<<<<<1<<<<11011rst111110111111ty;-",
"ddo;<<<<<1<<1<<<1<<<=<<:<0111war011111110111ru<-",
"ddo;*<<<<<<<<<<<<<<<:*##***=<qar:11101111111tu:-",
"ddo-<<<<<<<<<<<<<<:+.        &a&.+@#:==11011uu<-",
"dd--<1<<1<<<1<<<:@..         &i&  .  .X+#::wau:-",
"ddo-=r1:1::1<<:*...          $i$          Xusy*-",
"dd--:yt1111<:*O.          %% $y$         .8si6>-",
"dd--<ya0:<<*O...        ..69XX8X      .. 7ay1<#o",
"dd--:ri1<:@..           .Xp9XX8X       .6i7%<-od",
"ddo-;qw*+.  .         .. 5t9$ 2X      X28,>;-odd",
"ddo-<*+.. . .   ..   ...%9pp$ $X      %,>;--oddd",
"dddo;#OO  . ..+$$%%55669pppp%        .%>#-oddddd",
"dddo-;*###@@OO6ttppppppppppt5       X,;--ddddddd",
"ddddo----;;;<:<<00rtpppptppy3    O+*;;-odddddddd",
"dddddd-oo-o-o--;;<<<11wwttte&   O#<;-odddddddddd",
"dddddddddddddo-o-o-;;::>>>**@+@#<:;o-ddddddddddd",
"ddddddddddddddddddooo--;;;<::<<::--ddddddddddddd",
"ddddddddddddddddddddddoo----;-;--odddddddddddddd",
"ddddddddddddddddddddddddddo-oooodddddddddddddddd"
};
