/* XPM */
static char * player_back_xpm[] = {
"32 32 136 2",
"  	c #58C7FB",
". 	c #4DC4FB",
"+ 	c #4CC3FB",
"@ 	c #4BC3FB",
"# 	c #4AC3FB",
"$ 	c #4AC2FB",
"% 	c #4CC4FB",
"& 	c #55C6FB",
"* 	c #41C0FB",
"= 	c #42C0FB",
"- 	c #744B36",
"; 	c #946249",
"> 	c #7A4B36",
", 	c #634333",
"' 	c #AD794C",
") 	c #B78351",
"! 	c #BC8552",
"~ 	c #B47C4D",
"{ 	c #6D4936",
"] 	c #51342B",
"^ 	c #A27149",
"/ 	c #C48D54",
"( 	c #C89156",
"_ 	c #C69054",
": 	c #5A3C2E",
"< 	c #764D38",
"[ 	c #83533C",
"} 	c #824F3A",
"| 	c #8A5C42",
"1 	c #A26542",
"2 	c #A96E47",
"3 	c #AB7349",
"4 	c #985941",
"5 	c #4C322B",
"6 	c #826147",
"7 	c #986749",
"8 	c #95573E",
"9 	c #98593F",
"0 	c #965740",
"a 	c #8B654A",
"b 	c #705241",
"c 	c #6E4B3A",
"d 	c #775844",
"e 	c #352322",
"f 	c #724534",
"g 	c #A46C4D",
"h 	c #A36E50",
"i 	c #986D4A",
"j 	c #CCA673",
"k 	c #DBBB86",
"l 	c #DEC18C",
"m 	c #D2A96F",
"n 	c #8F7A68",
"o 	c #CBAF90",
"p 	c #E7CBA5",
"q 	c #EED7A9",
"r 	c #E3CA95",
"s 	c #DEC290",
"t 	c #EBD3A3",
"u 	c #CDB092",
"v 	c #9C866F",
"w 	c #5C4C40",
"x 	c #D3BB93",
"y 	c #F7E2BC",
"z 	c #FBE6C2",
"A 	c #EED8AC",
"B 	c #E6CD9B",
"C 	c #D7C29A",
"D 	c #6A574B",
"E 	c #977352",
"F 	c #E1C691",
"G 	c #A5815E",
"H 	c #946244",
"I 	c #CBA778",
"J 	c #E1C38B",
"K 	c #B98F63",
"L 	c #C79D6A",
"M 	c #B68B62",
"N 	c #CFAA7A",
"O 	c #AB7A53",
"P 	c #D1AE7D",
"Q 	c #D6B27C",
"R 	c #D8B37C",
"S 	c #C6A071",
"T 	c #AE8457",
"U 	c #A27D59",
"V 	c #B18E68",
"W 	c #492E27",
"X 	c #C08C59",
"Y 	c #7D533A",
"Z 	c #432A25",
"` 	c #AB8761",
" .	c #DABC88",
"..	c #B98458",
"+.	c #72523C",
"@.	c #BE956B",
"#.	c #C39563",
"$.	c #DAB682",
"%.	c #E6C79D",
"&.	c #D3AD74",
"*.	c #E9C99D",
"=.	c #AE8965",
"-.	c #603F31",
";.	c #885C3E",
">.	c #635041",
",.	c #CAAE84",
"'.	c #F9E4BD",
").	c #C49B67",
"!.	c #725D49",
"~.	c #B2845A",
"{.	c #D7B482",
"].	c #7E5741",
"^.	c #C1925E",
"/.	c #826853",
"(.	c #584636",
"_.	c #AA7553",
":.	c #8B553D",
"<.	c #613D2D",
"[.	c #67513D",
"}.	c #694233",
"|.	c #5A362C",
"1.	c #7C4C39",
"2.	c #BF8854",
"3.	c #95583E",
"4.	c #A87247",
"5.	c #3F2A25",
"6.	c #A06B46",
"7.	c #946A43",
"8.	c #D0A065",
"9.	c #563A2B",
"0.	c #BC8D5B",
"a.	c #D1A46A",
"b.	c #CBA26E",
"c.	c #BE9464",
"d.	c #D1A770",
"e.	c #53C5FB",
"  . + + @ @ # $ $ $ $ $ $ @ @ @ @ @ + % % % % % . . . . . . % & ",
"+ * = = = = = = = = = = = = = = = = = = = = = = = = = = = = * $ ",
"+ = = = = = = = = = = = = = - ; > = = = = = = = = = = = = = = $ ",
"@ = = = = = = = = = = = , ' ) ! ) ~ { = = = = = = = = = = = = $ ",
"@ = = = = = = = = = = ] ^ / ( / _ _ ' : = = = = = = = = = = = $ ",
"@ = = = = = = = = = = < / _ _ ( _ _ / [ = = = = = = = = = = = $ ",
"@ = = = = = = = = = = } ~ / _ _ _ ( ~ | ] = = = = = = = = = = $ ",
"@ = = = = = = = = = = > 1 2 ~ / / 3 4 } 5 = = = = = = = = = = $ ",
"# = = = = = = = = = 6 7 8 4 4 1 4 9 0 4 a = = = = = = = = = = $ ",
"$ = = = = = = = = = b c [ 4 4 9 9 9 | c d = = = = = = = = = = $ ",
"$ = = = = = = = = = = e f 9 g h g 1 > e e = = = = = = = = = = $ ",
"$ = = = = = = = = = = , i j k l k m ^ , = = = = = = = = = = = $ ",
"# = = = = = = = = = n o p q r s r t t u v = = = = = = = = = = $ ",
"@ = = = = = = = = w x t y z A B A z z t C D = = = = = = = = = $ ",
"@ = = = = = = = = E s F B A B r B A B s r G = = = = = = = = = $ ",
"@ = = = = = = = H I J K L F r r r l j M l N 7 = = = = = = = = $ ",
"@ = = = = = = = O k P < 3 m Q Q R m ~ - S J T = = = = = = = = $ ",
"@ = = = = = = = U F V W { / _ _ _ X Y Z G F ` = = = = = = = = $ ",
"+ = = = = = = = M  .6 = : ..( _ ( X , = +.k @.= = = = = = = = $ ",
"+ = = = = = = , #.$.H : U %.R &.Q *.=.-.;.Q L +.= = = = = = = $ ",
"% = = = = = = >.l l j +.,.y B J r '.x +.).k l !.= = = = = = = $ ",
"% = = = = = = !.l #.K | ~.l  ...{.F K ].#.^.l /.= = = = = = = $ ",
"% = = = = = = (.S _.:.:.1 O 7 <.a O 1 :.:.g I [.= = = = = = = $ ",
"% = = = = = = = +.}.|.1./ 3 1.Z f 2 ! ;.|.}.+.= = = = = = = = $ ",
". = = = = = = = = = e [ _ 2.- 5 { ) _ 3.e = = = = = = = = = = $ ",
". = = = = = = = = = = [ ~ 4.W = 5.6.~ ;.] = = = = = = = = = = $ ",
". = = = = = = = = = = 7./ ' <.= : 4./ ^ 5 = = = = = = = = = = $ ",
". = = = = = = = = = = 7.8.#.(.= 9.0.a.^ e = = = = = = = = = = $ ",
". = = = = = = = = = , ) k b.9.= 5 c.J 0.{ = = = = = = = = = = $ ",
". = = = = = = = = = { ! d.~.9.= 5 T m X < = = = = = = = = = = $ ",
"% * = = = = = = = = = [ H , = = = 9.3.| Z = = = = = = = = = * $ ",
"& $ $ $ $ $ $ $ $ $ $ $ $ $ $ $ $ $ $ $ $ $ $ $ $ $ $ $ $ $ $ e."};
