/* XPM */
static char * player_left_xpm[] = {
"32 32 209 2",
"  	c #58C7FB",
". 	c #4DC4FB",
"+ 	c #4CC3FB",
"@ 	c #4BC3FB",
"# 	c #4AC3FB",
"$ 	c #4AC2FB",
"% 	c #714432",
"& 	c #975E45",
"* 	c #744733",
"= 	c #5B3F30",
"- 	c #4CC4FB",
"; 	c #55C6FB",
"> 	c #41C0FB",
", 	c #42C0FB",
"' 	c #5F3E2F",
") 	c #8C5B3E",
"! 	c #AF794B",
"~ 	c #BB844F",
"{ 	c #B37F4D",
"] 	c #AD784E",
"^ 	c #80543A",
"/ 	c #714D36",
"( 	c #B68451",
"_ 	c #C38C53",
": 	c #C68F54",
"< 	c #C79055",
"[ 	c #C79153",
"} 	c #AC7048",
"| 	c #643D30",
"1 	c #B1764C",
"2 	c #8C533D",
"3 	c #53332C",
"4 	c #704A35",
"5 	c #BA8A58",
"6 	c #CB9A5F",
"7 	c #CB9A60",
"8 	c #C89559",
"9 	c #96583F",
"0 	c #7C4A39",
"a 	c #976B51",
"b 	c #DBBD92",
"c 	c #EBD2A3",
"d 	c #E3C996",
"e 	c #DEC18D",
"f 	c #D4AB74",
"g 	c #AD734A",
"h 	c #995B40",
"i 	c #764837",
"j 	c #2E1D1D",
"k 	c #805B4C",
"l 	c #E2CCAF",
"m 	c #F9E5C3",
"n 	c #E4CB9F",
"o 	c #E1C691",
"p 	c #DCBC87",
"q 	c #AA7650",
"r 	c #9F6342",
"s 	c #946142",
"t 	c #8A523C",
"u 	c #714736",
"v 	c #281C1D",
"w 	c #68493B",
"x 	c #D2B78F",
"y 	c #A99374",
"z 	c #98755B",
"A 	c #CEA670",
"B 	c #E3C892",
"C 	c #C79A6A",
"D 	c #AE7853",
"E 	c #916B4F",
"F 	c #5E352C",
"G 	c #56332B",
"H 	c #6A4B3C",
"I 	c #D5BC95",
"J 	c #B79B75",
"K 	c #C6A787",
"L 	c #DBB884",
"M 	c #946244",
"N 	c #593A30",
"O 	c #4B2D27",
"P 	c #452B27",
"Q 	c #674E41",
"R 	c #EBD1A6",
"S 	c #CD9E64",
"T 	c #C48C54",
"U 	c #906240",
"V 	c #3C2520",
"W 	c #372323",
"X 	c #45392E",
"Y 	c #B9A180",
"Z 	c #E7CA97",
"` 	c #DFC087",
" .	c #BD8552",
"..	c #A06844",
"+.	c #4E342B",
"@.	c #574530",
"#.	c #927756",
"$.	c #9D7752",
"%.	c #8E563B",
"&.	c #9F6543",
"*.	c #9E7150",
"=.	c #D1AD81",
"-.	c #B99E80",
";.	c #271C1D",
">.	c #73533C",
",.	c #AE8963",
"'.	c #CAA474",
").	c #EACEA3",
"!.	c #FCE7C5",
"~.	c #D2B393",
"{.	c #805A47",
"].	c #C8A274",
"^.	c #E4CC97",
"/.	c #EFD6A9",
"(.	c #EBD2A4",
"_.	c #E8D1A1",
":.	c #D9BE91",
"<.	c #7E5C48",
"[.	c #997B5D",
"}.	c #D1AC7C",
"|.	c #B68E63",
"1.	c #DABD8A",
"2.	c #99684E",
"3.	c #755642",
"4.	c #C79D6F",
"5.	c #BC8B5F",
"6.	c #83563D",
"7.	c #B08D69",
"8.	c #C39966",
"9.	c #7F5239",
"0.	c #492C26",
"a.	c #C38E5B",
"b.	c #8E6444",
"c.	c #785843",
"d.	c #CEAF7E",
"e.	c #74513C",
"f.	c #57372F",
"g.	c #C1966A",
"h.	c #E1C48E",
"i.	c #C89F6D",
"j.	c #684130",
"k.	c #52362A",
"l.	c #D7B989",
"m.	c #876249",
"n.	c #5A382C",
"o.	c #AD7B4D",
"p.	c #D5AA72",
"q.	c #B6845C",
"r.	c #6A3E2E",
"s.	c #CDA77D",
"t.	c #E0C595",
"u.	c #896948",
"v.	c #A57A53",
"w.	c #DCB77D",
"x.	c #A17957",
"y.	c #4F3127",
"z.	c #B4895F",
"A.	c #FAE3BD",
"B.	c #AB9370",
"C.	c #896F54",
"D.	c #D6AC76",
"E.	c #9B6C49",
"F.	c #54382A",
"G.	c #BB9B6D",
"H.	c #F3D8AF",
"I.	c #44322B",
"J.	c #6A4732",
"K.	c #C0905B",
"L.	c #CAA16E",
"M.	c #986340",
"N.	c #B38D6E",
"O.	c #D5AC76",
"P.	c #9B7B56",
"Q.	c #784B37",
"R.	c #C49362",
"S.	c #E2C993",
"T.	c #9E765A",
"U.	c #9D7654",
"V.	c #6F4935",
"W.	c #AE7C57",
"X.	c #684D39",
"Y.	c #352826",
"Z.	c #89503B",
"`.	c #D6B681",
" +	c #AA8A64",
".+	c #432C28",
"++	c #4B3529",
"@+	c #80503A",
"#+	c #975841",
"$+	c #C0A27A",
"%+	c #694836",
"&+	c #63422E",
"*+	c #A7794C",
"=+	c #AB7348",
"-+	c #7C4736",
";+	c #DBB985",
">+	c #A98660",
",+	c #422D28",
"'+	c #83553B",
")+	c #C5A482",
"!+	c #E2C194",
"~+	c #E1C08B",
"{+	c #987352",
"]+	c #FEE9C2",
"^+	c #9E7856",
"/+	c #BB9F79",
"(+	c #B09672",
"_+	c #84664C",
":+	c #53C5FB",
"  . + + @ @ # $ $ $ $ $ $ @ % & * = + - - - - - . . . . . . - ; ",
"+ > , , , , , , , , , , ' ) ! ~ { ] ^ , , , , , , , , , , , > $ ",
"+ , , , , , , , , , , / ( _ : < [ < } | , , , , , , , , , , , $ ",
"@ , , , , , , , , , , ] : : : [ < < 1 2 3 , , , , , , , , , , $ ",
"@ , , , , , , , , , 4 5 6 7 7 8 < : } 9 0 , , , , , , , , , , $ ",
"@ , , , , , , , , , a b c d e f ~ g h h i j , , , , , , , , , $ ",
"@ , , , , , , , , , k l m n o p q r s t u v , , , , , , , , , $ ",
"@ , , , , , , , , , w x y z A B C D E F G , , , , , , , , , , $ ",
"# , , , , , , , , , H I J K L p f M N O P , , , , , , , , , , $ ",
"$ , , , , , , , , , Q l R d e S T U V W , , , , , , , , , , , $ ",
"$ , , , , , , , , , X Y Z ` 6  ...^ +., , , , , , , , , , , , $ ",
"$ , , , , , , , , , , @.#.$.%.&.*.=.-., , , , , , , , , , , , $ ",
"# , , , , , , , , , , , ;.>.,.'.).!.m ~., , , , , , , , , , , $ ",
"@ , , , , , , , , , , , {.].Z ^./.(._.:.<., , , , , , , , , , $ ",
"@ , , , , , , , , , , , [.o e }.|.1.d }.2., , , , , , , , , , $ ",
"@ , , , , , , , , , , , 3.4.5.6.+.7.o 8.9., , , , , , , , , , $ ",
"@ , , , , , , , , , , , 0.D a.b.V c.e d.e., , , , , , , , , , $ ",
"@ , , , , , , , , , , , f.g.h.i.j.k.].l.m., , , , , , , , , , $ ",
"+ , , , , , , , , , , , n.o.p.q.r.i s.t.u., , , , , , , , , , $ ",
"+ , , , , , , , , , , , , v.w.x.y.z.c A.B.W , , , , , , , , , $ ",
"- , , , , , , , , , , , , C.D.E.F.G.n H.J I., , , , , , , , , $ ",
"- , , , , , , , , , , , , J.K.L.q M.N.O.P., , , , , , , , , , $ ",
"- , , , , , , , , , , , , Q.R.S.=.Q.T.U.V., , , , , , , , , , $ ",
"- , , , , , , , , , , , , 4 W.B l.X.I.Y., , , , , , , , , , , $ ",
". , , , , , , , , , , , , Z.M `.B  +.+, , , , , , , , , , , , $ ",
". , , , , , , , , , , ++@+#+%.|.Z $+%+, , , , , , , , , , , , $ ",
". , , , , , , , , , &+*+=+h -+U O.;+>+, , , , , , , , , , , , $ ",
". , , , , , , , , , ,+e.'+| {.)+!+~+{+, , , , , , , , , , , , $ ",
". , , , , , , , , , , , , N )+]+A.=.J., , , , , , , , , , , , $ ",
". , , , , , , , , , , , , f.^+/+(+_+, , , , , , , , , , , , , $ ",
"- > , , , , , , , , , , , , , , , , , , , , , , , , , , , , > $ ",
"; $ $ $ $ $ $ $ $ $ $ $ $ $ $ $ $ $ $ $ $ $ $ $ $ $ $ $ $ $ $ :+"};
