/* XPM */
static char * player_front_xpm[] = {
"32 32 169 2",
"  	c #58C7FB",
". 	c #4DC4FB",
"+ 	c #4CC3FB",
"@ 	c #4BC3FB",
"# 	c #4AC3FB",
"$ 	c #4AC2FB",
"% 	c #4CC4FB",
"& 	c #55C6FB",
"* 	c #41C0FB",
"= 	c #42C0FB",
"- 	c #8E613F",
"; 	c #9B6444",
"> 	c #AA734A",
", 	c #8D6044",
"' 	c #4D332A",
") 	c #9B6A47",
"! 	c #C48E54",
"~ 	c #C69054",
"{ 	c #8D5E41",
"] 	c #3E2A25",
"^ 	c #835A3D",
"/ 	c #734C36",
"( 	c #53362C",
"_ 	c #BA814E",
": 	c #BC8652",
"< 	c #8A533B",
"[ 	c #452B26",
"} 	c #613A2E",
"| 	c #91553D",
"1 	c #B37D4D",
"2 	c #D8B37C",
"3 	c #DAB783",
"4 	c #D4AB72",
"5 	c #59372C",
"6 	c #5B3B2E",
"7 	c #C4966B",
"8 	c #F8E1B7",
"9 	c #FDE9C4",
"0 	c #FBE5C1",
"a 	c #F3DCB3",
"b 	c #B58962",
"c 	c #56392E",
"d 	c #603F30",
"e 	c #A87D59",
"f 	c #A36C45",
"g 	c #BAA58A",
"h 	c #EBD6B3",
"i 	c #E8D1AB",
"j 	c #B79C82",
"k 	c #B57E51",
"l 	c #9E7351",
"m 	c #42322B",
"n 	c #815E48",
"o 	c #C49971",
"p 	c #806550",
"q 	c #D5BB8A",
"r 	c #E6CD99",
"s 	c #C5AB82",
"t 	c #856854",
"u 	c #7D563C",
"v 	c #7A5B45",
"w 	c #2F2121",
"x 	c #CDAA88",
"y 	c #D2AD83",
"z 	c #F4DEBA",
"A 	c #BB9678",
"B 	c #3F2F28",
"C 	c #492C28",
"D 	c #927353",
"E 	c #E4C592",
"F 	c #DBBE8B",
"G 	c #7F604A",
"H 	c #A5876C",
"I 	c #BF9967",
"J 	c #DEC28D",
"K 	c #B3845E",
"L 	c #7E5A3D",
"M 	c #B09279",
"N 	c #A88D7A",
"O 	c #928370",
"P 	c #FAE2BB",
"Q 	c #D5B68D",
"R 	c #916D4E",
"S 	c #8C634A",
"T 	c #8F694C",
"U 	c #DEC298",
"V 	c #7A6B5C",
"W 	c #654232",
"X 	c #BB9B74",
"Y 	c #E6D099",
"Z 	c #ECD3A4",
"` 	c #CDAA79",
" .	c #C29865",
"..	c #CEB181",
"+.	c #A68761",
"@.	c #E3CA94",
"#.	c #91644A",
"$.	c #CA9E6B",
"%.	c #A77853",
"&.	c #C8A778",
"*.	c #C39562",
"=.	c #745039",
"-.	c #312422",
";.	c #A7744C",
">.	c #C6925A",
",.	c #C99559",
"'.	c #34201F",
").	c #997756",
"!.	c #D2AD7A",
"~.	c #654936",
"{.	c #755037",
"].	c #C7A06B",
"^.	c #5E4032",
"/.	c #82573F",
"(.	c #A46D49",
"_.	c #BA8E61",
":.	c #483227",
"<.	c #946542",
"[.	c #D0A56C",
"}.	c #E0C28E",
"|.	c #CB9A5F",
"1.	c #CEA36E",
"2.	c #A98A66",
"3.	c #E8C99E",
"4.	c #6B4434",
"5.	c #B19165",
"6.	c #6C4E37",
"7.	c #C7A573",
"8.	c #F3DAAF",
"9.	c #A99270",
"0.	c #BFA97D",
"a.	c #CEAB87",
"b.	c #AB8158",
"c.	c #905B3E",
"d.	c #8E7160",
"e.	c #B88B5D",
"f.	c #D8B795",
"g.	c #A38B69",
"h.	c #2F2820",
"i.	c #987148",
"j.	c #A2795B",
"k.	c #8E5D3F",
"l.	c #C39C6B",
"m.	c #D3B282",
"n.	c #856546",
"o.	c #2D1F1E",
"p.	c #B58E6B",
"q.	c #CC9B65",
"r.	c #835C43",
"s.	c #6E4B3B",
"t.	c #87654F",
"u.	c #755340",
"v.	c #514136",
"w.	c #C7AC7F",
"x.	c #6C503D",
"y.	c #AE8A5E",
"z.	c #4F3B2E",
"A.	c #BC8953",
"B.	c #AF7D4D",
"C.	c #7C4F37",
"D.	c #BAA487",
"E.	c #EBCFA5",
"F.	c #E6CCA4",
"G.	c #A57E60",
"H.	c #AB927C",
"I.	c #865443",
"J.	c #5E3B30",
"K.	c #BA8D68",
"L.	c #53C5FB",
"  . + + @ @ # $ $ $ $ $ $ @ @ @ @ @ + % % % % % . . . . . . % & ",
"+ * = = = = = = = = = = = - ; > ; , = = = = = = = = = = = = * $ ",
"+ = = = = = = = = = = ' ) ! ~ ~ ~ ! { ] = = = = = = = = = = = $ ",
"@ = = = = = = = = = = ^ ! ~ ~ ~ ~ ~ ! / = = = = = = = = = = = $ ",
"@ = = = = = = = = = ( ; _ ! ! ! ! ~ : < [ = = = = = = = = = = $ ",
"@ = = = = = = = = = } | 1 2 3 3 3 4 > < 5 = = = = = = = = = = $ ",
"@ = = = = = = = = = 6 | 7 8 9 0 9 a b < c = = = = = = = = = = $ ",
"@ = = = = = = = = d e f b g h a i j k f l = = = = = = = = = = $ ",
"# = = = = = = = = m n ^ o p q r s t 7 u v = = = = = = = = = = $ ",
"$ = = = = = = = = = w ( x y z 0 i y A B w = = = = = = = = = = $ ",
"$ = = = = = = = = = = C D E a z a F G C = = = = = = = = = = = $ ",
"$ = = = = = = = = = j H v I J J F K L M N = = = = = = = = = = $ ",
"# = = = = = = = = O z P Q e R S T b U P h V = = = = = = = = = $ ",
"@ = = = = = = = W X Y Z Z F `  ...J Z Z Y +.= = = = = = = = = $ ",
"@ = = = = = = = l 3 3 J @.@.@.@.@.@.@.J 2 2 #.= = = = = = = = $ ",
"@ = = = = = = = $.E %.R &.F J J J 3 X S b E *.= = = = = = = = $ ",
"@ = = = = = = =.` J S -.W ;.>.,.>.f c '.).@.I W = = = = = = = $ ",
"@ = = = = = = #.F !.~.= {.].4 4 4 *.^.= v F ../.= = = = = = = $ ",
"+ = = = = = = (.4 _.:.= <.[.J }.}.|.^ = 6 ].1.; = = = = = = = $ ",
"+ = = = = = '.2.3.!.{ 4.f ! ].1.|._ ; W ) 3 E D = = = = = = = $ ",
"% = = = = = :.s 9 Z 5.6.1 f [.Z |.f 1 ~.7.8.0 9.= = = = = = = $ ",
"% = = = = = m 0.3.a.b.^ : c., d.{ - : L e.f.E g.= = = = = = = $ ",
"% = = = = = h.i.1.j.k.l.F m.n.o.).3 J _.< p.q.n.= = = = = = = $ ",
"% = = = = = = } v r.s.F @.E D ] 2.@.@.s W t.u.= = = = = = = = $ ",
". = = = = = = = = = v.q r w.^.= x.q @.0.m = = = = = = = = = = $ ",
". = = = = = = = = = 4.].J y.] = z.l.J b } = = = = = = = = = = $ ",
". = = = = = = = = = W A.~ ;.} = d 1 ,.B.( = = = = = = = = = = $ ",
". = = = = = = = = = z.A.~ C.[ = C { ,.b.] = = = = = = = = = = $ ",
". = = = = = = = = = D.E.F.T -.= ] G.E.F.H.= = = = = = = = = = $ ",
". = = = = = = = = I.&.r J %.' = J.e.E r 7 = = = = = = = = = = $ ",
"% * = = = = = = = C r.K.i.d = = = 4.e b {.= = = = = = = = = * $ ",
"& $ $ $ $ $ $ $ $ $ $ $ $ $ $ $ $ $ $ $ $ $ $ $ $ $ $ $ $ $ $ L."};
