/* XPM */
static char *result[] = {
/* columns rows colors chars-per-pixel */
"48 64 184 2 ",
"   c #171717",
".  c #161618",
"X  c #1A1A1A",
"o  c #181919",
"O  c #22211C",
"+  c #302B17",
"@  c #393317",
"#  c #1F1F21",
"$  c #232324",
"%  c #2B2B2B",
"&  c #292927",
"*  c #333333",
"=  c #3B3B3C",
"-  c #343539",
";  c #463D14",
":  c #4B4015",
">  c #574A11",
",  c #62530E",
"<  c #695914",
"1  c #54503C",
"2  c #6F632D",
"3  c #434343",
"4  c #4C4C4C",
"5  c #545454",
"6  c #5C5C5C",
"7  c #5E5F60",
"8  c #636363",
"9  c #6B6B6C",
"0  c #67686B",
"q  c #6F6F70",
"w  c #747474",
"e  c #7B7B7B",
"r  c #9A8E0B",
"t  c #9D8610",
"y  c #AE900A",
"u  c #AEA909",
"i  c #AC9A36",
"p  c #D1AE03",
"a  c #E4BE0E",
"s  c #F8BF08",
"d  c #F4B817",
"f  c #C4AB3B",
"g  c #CFB237",
"h  c #EDC404",
"j  c #E4C104",
"k  c #FDCC01",
"l  c #FBCD0E",
"z  c #FDD401",
"x  c #FEDC01",
"c  c #FBD30A",
"v  c #FEDE0B",
"b  c #F9C616",
"n  c #FBD414",
"m  c #FDDB13",
"M  c #F6D41E",
"N  c #FCDA1F",
"B  c #FEE302",
"V  c #FDE30B",
"C  c #FEEC05",
"Z  c #FEF107",
"A  c #FDE215",
"S  c #FDE119",
"D  c #FDF012",
"F  c #DCC032",
"G  c #F8CD28",
"H  c #EEDB28",
"J  c #FAD523",
"K  c #FBDC24",
"L  c #F6D42C",
"P  c #F8D72B",
"I  c #F6D72A",
"U  c #F5C532",
"Y  c #EFD139",
"T  c #F5D532",
"R  c #F3DA34",
"E  c #F9DA33",
"W  c #F4D53A",
"Q  c #F9DC3C",
"!  c #F7DA3C",
"~  c #FBE42D",
"^  c #FCE823",
"/  c #FAE934",
"(  c #FAE33B",
")  c #FBE538",
"_  c #FBF030",
"`  c #97894B",
"'  c #A29141",
"]  c #A29762",
"[  c #D1BC5E",
"{  c #C1B773",
"}  c #ECCE47",
"|  c #F1CF42",
" . c #EED246",
".. c #F2D34A",
"X. c #F4DA43",
"o. c #EACE50",
"O. c #F3CA51",
"+. c #EBD354",
"@. c #EBD55F",
"#. c #F2D954",
"$. c #FBE245",
"%. c #F9E24C",
"&. c #F9E94E",
"*. c #FAED42",
"=. c #F8E554",
"-. c #F9EC55",
";. c #F8E55A",
":. c #F7E95F",
">. c #F8EB5A",
",. c #F7E45E",
"<. c #F9F457",
"1. c #F2C562",
"2. c #EDD664",
"3. c #E5D36A",
"4. c #F3D368",
"5. c #E6D976",
"6. c #E7D37A",
"7. c #F7E362",
"8. c #F7EA65",
"9. c #F6ED6C",
"0. c #F8E669",
"q. c #F7F069",
"w. c #F6ED71",
"e. c #F6ED7C",
"r. c #F7F273",
"t. c #F6F27A",
"y. c #7F7F81",
"u. c #838383",
"i. c #898989",
"p. c #838489",
"a. c #939394",
"s. c #9C9C9C",
"d. c #97989C",
"f. c #A5A393",
"g. c #9E9FA3",
"h. c #A3A3A4",
"j. c #A6A6A9",
"k. c #ABABAB",
"l. c #AFAFB2",
"z. c #B2B2B2",
"x. c #BBBBBB",
"c. c #B6B6B8",
"v. c #C5B994",
"b. c #DECD81",
"n. c #DED280",
"m. c #D9CF94",
"M. c #DFD297",
"N. c #EED098",
"B. c #F6EC82",
"V. c #F5ED8C",
"C. c #F5F185",
"Z. c #F5F088",
"A. c #F5EC91",
"S. c #F4EC9D",
"D. c #DCD3AD",
"F. c #CFCCBE",
"G. c #D2CCB1",
"H. c #DBD4B4",
"J. c #D7D2BD",
"K. c #DAD5BB",
"L. c #EED5A4",
"P. c #EFDDB6",
"I. c #F3E9B3",
"U. c #C4C4C5",
"Y. c #C6C7CB",
"T. c #CCCCCE",
"R. c #CDCBC5",
"E. c #D4D2CD",
"W. c #D8D4C0",
"Q. c #CECED1",
"!. c #D2D2D5",
"~. c #D6D6D9",
"^. c #DBDBDC",
"/. c #EAE4C4",
"(. c #EDE5D7",
"). c #DFDFE0",
"_. c #E3E3E4",
"`. c #EDEBE6",
"'. c #E7E7E8",
"]. c #EBEBEC",
"[. c #F0EFEE",
"{. c #EDEEF0",
"}. c #F0F0F0",
"|. c None",
/* pixels */
"|.|.|.|.|.|.|.|.|.|.|.|.|.|.|.|.|.|.|.|.|.|.|.|.|.|.|.|.|.|.|.|.|.|.|.|.|.|.|.|.|.|.|.|.|.|.|.|.",
"|.|.|.|.|.|.|.|.|.|.|.|.|.|.|.|.|.|.|.|.|.|.|.|.|.|.|.|.|.|.|.|.|.|.|.|.|.|.|.|.|.|.|.|.|.|.|.|.",
"|.|.|.|.|.|.|.|.|.|.|.|.|.|.|.|.|.|.|.|.|.|.|.|.k k k |.|.|.|.|.|.|.|.|.|.|.|.|.|.|.|.|.|.|.|.|.",
"|.|.|.|.|.|.|.|.|.|.|.|.|.|.|.|.|.|.|.|.|.|.|.x z z k |.|.|.|.|.|.|.|.|.|.|.|.|.|.|.|.|.|.|.|.|.",
"|.|.|.|.|.|.|.|.|.|.|.|.|.|.|.|.|.|.|.|.|.|.|.Z x B k |.|.|.|.|.|.|.|.|.|.|.|.|.|.|.|.|.|.|.|.|.",
"|.|.|.|.|.|.|.|.|.|.|.|.|.|.|.|.|.|.|.|.|.|.|.u r r y |.|.|.|.|.|.|.|.|.|.|.|.|.|.|.|.|.|.|.|.|.",
"|.|.|.|.|.|.|.|.|.|.|.|.|.|.|.|.|.|.|.|.X o o X # $ & $ X   |.|.|.|.|.|.|.|.|.|.|.|.|.|.|.|.|.|.",
"|.|.|.|.|.|.|.|.|.|.|.|.|.|.|.|.|.|.X X X = 8 y.a.s.h.s.i.w 3 $ |.|.|.|.|.|.|.|.|.|.|.|.|.|.|.|.",
"|.|.|.|.|.|.|.|.|.|.|.|.|.|.|.|.|.X X = y.j.l.z.z.z.z.z.z.z.j.e *   |.|.|.|.|.|.|.|.|.|.|.|.|.|.",
"|.|.|.|.|.|.|.|.|.|.|.|.|.|.|.X X X 5 a.f.s.s.d.s.s.s.s.s.s.s.s.e $ X |.|.|.|.|.|.|.|.|.|.|.|.|.",
"|.|.|.|.|.|.|.|.|.|.|.|.|.|.|.X X 3 u.i.i.i.i.i.] p.i.i.i.i.i.i.p.=   X |.|.|.|.|.|.|.|.|.|.|.|.",
"|.|.|.|.|.|.|.|.|.|.|.|.|.|.X X X 8 w w w e w w y.q w w q 0 0 9 w * X X X |.|.|.|.|.|.|.|.|.|.|.",
"|.|.|.|.|.|.|.|.|.|.|.|.|.X X X # 5 8 6 5 4 6 8 7 7 7 7 = $ $ * = X X X X |.|.|.|.|.|.|.|.|.|.|.",
"|.|.|.|.|.|.|.|.|.|.|.|.|.X X X X * = * = 1 - = 3 4 4 % = p.k.k.e * . X X X |.|.|.|.|.|.|.|.|.|.",
"|.|.|.|.|.|.|.|.|.|.|.|.|.X X X X $ 9 c.~.).Y.p.= - % 4 T.}.].}.}.U.1 . X X |.|.|.|.|.|.|.|.|.|.",
"|.|.|.|.|.|.|.|.|.|.|.|.|.X X X $ i.'.{.].{.{.{.l.- % x.}._.'.].}.}.h.# o X |.|.|.|.|.|.|.|.|.|.",
"|.|.|.|.|.|.|.|.|.|.|.|.X X X X 8 '.'._.'.{.{.{.}.i.7 '.'.).'.'.{.{.).3 X X |.|.|.|.|.|.|.|.|.|.",
"|.|.|.|.|.|.|.|.|.|.|.|.X X X X k.].)._.'.'.~.'.{.Y.y.]._.~.s.p.l.{.'.5   X |.|.|.|.|.|.|.|.|.|.",
"|.|.|.|.|.|.|.|.|.|.|.|.X X X $ Y._.)._.^.a.e e T.).y.'.'.l.7 5 4 !.(.3 . X |.|.|.|.|.|.|.|.|.|.",
"|.|.|.|.|.|.|.|.|.|.|.|.|.X X $ F._.)._.x.9 5 3 y.).4 c.{.c.w = 3 ~.j.# X X |.|.|.|.|.|.|.|.|.|.",
"|.|.|.|.|.|.|.|.|.|.|.|.|.X X X a.{.(.'.x.u.4 * ] l.# 4 T._.h.e k.x.= o X X |.|.|.|.|.|.|.|.|.|.",
"|.|.|.|.|.|.|.|.|.|.|.|.|.X X   = Q.].'._.a.8 8 x.7 . . - y.j.j.e * o X X X |.|.|.|.|.|.|.|.|.|.",
"|.|.|.|.|.|.|.|.|.|.|.|.|.X X X X 5 U.].}.'.~.U.9 X @ > , > @ $ o o X X X |.|.|.|.|.|.|.|.|.|.|.",
"|.|.|.|.|.|.|.|.|.|.|.|.|.X X X X o * 9 s.s.e = : t g #.W M h y , X X X X |.|.|.|.|.|.|.|.|.|.|.",
"|.|.|.|.|.|.|.|.|.|.|.|.|.X X X X X o o X o $ < j 0.I.S.e.;.) m h ; . X X X |.|.|.|.|.|.|.|.|.|.",
"|.|.|.|.|.|.|.|.|.|.|.|.|.X X X X X o X 3 i.v.| $./ C.S.t.>.( m p + o X X X |.|.|.|.|.|.|.|.|.|.",
"|.|.|.|.|.|.|.|.|.|.|.|.X X X X o o * a.^.}.1.J S.&.D <.r.>./ A i $   X X X |.|.|.|.|.|.|.|.|.|.",
"|.|.|.|.|.|.|.|.|.|.|.|.o X X X o 5 U.].].].N.d Q A.*.Z _ -.~ S /.s.& X X X |.|.|.|.|.|.|.|.|.|.",
"|.|.|.|.|.|.|.|.|.|.|.X X X X X 8 ~.}.].].}.].L.U E ,./ B S v 2.[.}.h.& X X X |.|.|.|.|.|.|.|.|.",
"|.|.|.|.|.|.|.|.|.|.X X X X X 6 ^.}.[.].].].{.{.(.4.J P m z l I.{.].].i.X X $ # |.|.|.|.|.|.|.|.",
"|.|.|.|.|.|.|.|.|.X X X X X 3 !.}.].].[.[.].{.].].].I.O.d k 4.`.].].{._.6 . % = |.|.|.|.|.|.|.|.",
"|.|.|.|.|.|.|.|.X $ $ X   $ z.].].[.[.].].{.].[.[.].{.`.P.L.(.{.[.].].}.x.& X 5 * |.|.|.|.|.|.|.",
"|.|.|.|.|.|.|.X & * X o o w ].].].].].].].].].[.[.].].[.{.{.{.].].{.[.].].8 o 3 6 $ |.|.|.|.|.|.",
"|.|.|.|.|.|.X * = % X o * U.].'.].].].].].].].].].].].].].].].].].].].].}.k.O & 0 4 X |.|.|.|.|.",
"|.|.|.|.|.$ 3 4 * # X o 0 '.'.'.'.'.'.].].'.'.'.].'.].'.'.].].].].].].].].~.= X 3 0 3 X |.|.|.|.",
"|.|.|.|.* 5 5 * X X X $ k.'.'.'.'.'.'.'.'.'.'.'.'.'.].'.'.'.'.'.'.].'.'.'.'.8 . X = 6 * X |.|.|.",
"|.|.X 3 9 5 % X X X o = !._._.'.'._.'._.'.'._.'.'.'.'._.'._.'.'.'.'.'.'.'.].p.o X X * 4 * X |.|.",
"|.$ 6 e 4 $ X X X X o 7 )._._._._._._._._._._._.'.'._._.'._.'._._.'._._.'.'.s.X X X X $ = * $ |.",
"% q ] - X X X X X X o e )._._.).)._._.(._._.)._.)._._._._._._._._._._._._.'.j.O X |.X X X & & # ",
"- 6 - . X X X X X X X a.).).).).).)._.).^._.)._.)._.)._._.).).(.)._.(._._.'.k.# |.|.|.|.X X X X ",
"|.|.|.|.|.|.|.# X X O h.^.).).).).).).^.).).).).).).).).).).).).).).)._._._.h.# |.|.|.|.|.|.X |.",
"|.|.|.|.|.|.|.# X o $ j.~.^.^.^.^.^.^.).).^.^.^.).^.).^.^.).).).).).).).)._.a.X |.|.|.|.|.|.|.|.",
"|.|.|.|.|.|.|.X X o $ j.!.^.^.^.~.^.~.).^.^.^.^.^.^.^.^.^.^.^.^.).).~.).^.).e o |.|.|.|.|.|.|.|.",
"|.|.|.|.|.|.|.# # X # s.Q.~.~.^.~.^.^.~.~.^.~.^.^.~.^.^.^.^.^.^.~.~.).~.^.~.6   |.|.|.|.|.|.|.|.",
"|.|.|.|.|.|.|.# & # X i.Q.!.~.~.~.~.~.~.~.~.~.~.~.~.~.^.^.~.~.~.~.~.~.^.^.U.= . |.|.|.|.|.|.|.|.",
"|.|.|.|.|.|.|.|.% * X q Q.Q.!.~.~.~.~.~.~.~.~.~.~.~.~.~.~.~.~.~.~.~.~.~.~.g.$ |.|.|.|.|.|.|.|.|.",
"|.|.|.|.|.|.|.|.* = * 5 U.Q.Q.!.!.!.!.!.!.!.!.~.~.!.!.~.~.!.~.~.~.~.!.~.!.9 & |.|.|.|.|.|.|.|.|.",
"|.|.|.|.|.|.|.|.& 3 3 3 l.Q.T.!.!.!.!.!.!.!.!.!.!.!.!.!.!.!.!.!.~.~.!.!.c.4 % |.|.|.|.|.|.|.|.|.",
"|.|.|.|.|.|.|.|.|.= 5 5 a.T.T.Q.Q.Q.!.!.Q.!.!.Q.!.!.!.Q.!.!.!.!.!.!.Q.Q.a.3 |.|.|.|.|.|.|.|.|.|.",
"|.|.|.|.|.|.|.|.|.% 5 6 w U.Q.Q.Q.Q.Q.Q.Q.T.Q.Q.Q.Q.!.Q.Q.Q.Q.Q.Q.Q.Q.c.8 = |.|.|.|.|.|.|.|.|.|.",
"|.|.|.|.|.|.|.|.|.|.= 7 0 g.T.E.Q.!.Q.T.T.T.T.T.Q.T.T.T.T.Q.T.Q.Q.!.Y.u.5 |.|.|.|.|.|.|.|.|.|.|.",
"|.|.|.|.|.|.|.|.|.|.|.1 ` f | | o.6.D.!.!.T.T.Q.T.T.T.T.Q.Q.!.J.N.n.[ ' 2 |.|.|.|.|.|.|.|.|.|.|.",
"|.|.|.|.|.|.|.|.|.|.|.h k z z z z z n @.W.~.!.T.!.!.Q.!.!.W.3.M z z z z k z |.|.|.|.|.|.|.|.|.|.",
"|.|.|.|.|.|.|.|.m.M x x x B B A S A V x R H.~.~.~.!.!.~.D.T x K $.=.%.~ v x z Y G.|.|.|.|.|.|.|.",
"|.|.|.|.|.|.T.F.R B B B C ( 8.e.B.B.w.&.A X.E.~.!.!.!.H.I m ,.B.V.V.A.V.9.A x x | U.T.T.|.|.|.|.",
"|.|.|.|.T.T.Q.n.x B B Z >.B.Z.Z.C.C.C.V.r.^ 5.!.!.!.E...v 7.e.e.t.C.C.C.V.;.B x z b.Q.T.T.|.|.|.",
"|.|.|.Q.Y.Y.Q.+.x B C _ e.e.t.t.t.t.t.t.e.;.H f.a.p.] c Q 0.9.q.r.r.t.t.t.9.V x z } Q.Y.Q.T.|.|.",
"|.|.|.Q.Q.Q.Q.3.x B B / 9.9.r.q.r.w.r.9.w.>.V { g.d.g z Q ,.:.8.8.q.q.q.w.&.x x z o.Q.T.T.T.Q.|.",
"|.|.|.!.!.!.!.W.R x x A =.8.8.8.8.8.8.8.8.~ x 5.).Q.G k N %.=.=.>.>.:.8.=.S x z L H.!.~.Q.!.|.|.",
"|.|.|.|.|.|.|.|.K...m z m Q =.;.;.;.=.%.K x P K.|.|.| k k J X.X.%.%.%.( m z c W H.|.|.|.|.|.|.|.",
"|.|.|.|.|.|.|.|.|.|.|.2.W P P E ! ! P J P 2.|.|.|.|.|...b n n J J J m c n T 6.|.|.|.|.|.|.|.|.|.",
"|.|.|.|.|.|.|.|.|.|.|.|.|.|.|.|.|.|.|.|.|.|.|.|.|.|.|.|.|.|.|.|.|.|.|.|.|.|.|.|.|.|.|.|.|.|.|.|.",
"|.|.|.|.|.|.|.|.|.|.|.|.|.|.|.|.|.|.|.|.|.|.|.|.|.|.|.|.|.|.|.|.|.|.|.|.|.|.|.|.|.|.|.|.|.|.|.|.",
"|.|.|.|.|.|.|.|.|.|.|.|.|.|.|.|.|.|.|.|.|.|.|.|.|.|.|.|.|.|.|.|.|.|.|.|.|.|.|.|.|.|.|.|.|.|.|.|."
};
