/* XPM */
static char *result[] = {
/* columns rows colors chars-per-pixel */
"48 48 15 1 ",
"  c #68CDFC",
". c #55C6FB",
"X c #54C6FB",
"o c #53C6FB",
"O c #53C5FB",
"+ c #52C5FB",
"@ c #51C5FB",
"# c #50C4FB",
"$ c #61CAFC",
"% c #40BFFB",
"& c #41C0FB",
"* c #42C0FB",
"= c #40C0FB",
"- c #5EC9FC",
"; c white",
/* pixels */
" .XoO++@@###########@+++++++ooooooooXXXXXXXXXXo$",
"+%&&&&&&&&&&&&&&&&&&&&&&&&&&&&&&&&&&&&&&&&&&&&%#",
"o&********************************************&#",
"O&********************************************&#",
"+&********************************************&#",
"+&********************************************&#",
"+&********************************************&#",
"+&********************************************&#",
"+&********************************************&#",
"+&********************************************&#",
"@&********************************************&#",
"@&********************************************&#",
"#&********************************************&#",
"#&********************************************&#",
"#&********************************************&#",
"#&********************************************&#",
"#&********************************************&#",
"#&********************************************&#",
"#&********************************************&#",
"@&********************************************&#",
"+&********************************************&#",
"+&********************************************&#",
"+&********************************************&#",
"+&********************************************&#",
"+&********************************************&#",
"+&********************************************&#",
"+&********************************************&#",
"+&********************************************&#",
"O&********************************************&#",
"o&********************************************&#",
"o&********************************************&#",
"o&********************************************&#",
"o&********************************************&#",
"o&********************************************&#",
"o&********************************************&#",
"o&********************************************&#",
"X&********************************************&#",
"X&********************************************&#",
"X&********************************************&#",
"X&********************************************&#",
"X&********************************************&#",
"X&********************************************&#",
"X&********************************************&#",
"X&********************************************&#",
"X&********************************************&#",
"X&********************************************&#",
"o%&&&&&&&&&&&&&&&&&&&&&&&&&&&&&&&&&&&&&&&&&&&&=#",
"$##############################################-"
};
