/* XPM */
static char *c68667a65ec448028c49210ff7ed0591BPkPtdUoszqrvjiE[] = {
/* columns rows colors chars-per-pixel */
"48 24 173 2 ",
"   c #01BDC6",
".  c #0EB9C0",
"X  c #09B4CE",
"o  c #02BCCC",
"O  c #0ABECD",
"+  c #15B6C0",
"@  c #11BFCA",
"#  c #0BB5D2",
"$  c #01BED2",
"%  c #0CBFD2",
"&  c #07B5D8",
"*  c #04BCDA",
"=  c #0CBCDC",
"-  c #11BCD3",
";  c #14BFD8",
":  c #18BCD8",
">  c #0FBDE0",
",  c #12BEE4",
"<  c #16BFE8",
"1  c #00C2C7",
"2  c #01C3CD",
"3  c #09C3CC",
"4  c #01CACC",
"5  c #0FC8CD",
"6  c #12C3CC",
"7  c #02C4D3",
"8  c #0AC4D3",
"9  c #02CAD4",
"0  c #0ACBD4",
"q  c #03C4DA",
"w  c #0AC4D9",
"e  c #03CBDA",
"r  c #0BCCDB",
"t  c #13C3D4",
"y  c #12CCD5",
"u  c #1BCCD5",
"i  c #12C4DB",
"p  c #1BC5DF",
"a  c #13CCDC",
"s  c #1BCBDE",
"d  c #00D0D7",
"f  c #0AD3D6",
"g  c #00DCD3",
"h  c #04D3DC",
"j  c #0BD2DC",
"k  c #01DBDD",
"l  c #0BD9DD",
"z  c #13D5D7",
"x  c #13D3DD",
"c  c #1BD3DF",
"v  c #13DBDE",
"b  c #1BDADD",
"n  c #22C5D6",
"m  c #21C5DB",
"M  c #22C9DB",
"N  c #24D1D9",
"B  c #21DCDB",
"V  c #28DCDB",
"C  c #0AE0D6",
"Z  c #04E6DB",
"A  c #0BE1D9",
"S  c #14E1DE",
"D  c #04C5E1",
"F  c #0CC5E4",
"G  c #02CBE1",
"H  c #0ECFE1",
"J  c #03CFE8",
"K  c #09CCE9",
"L  c #13C7E3",
"P  c #18C7E2",
"I  c #13CDE0",
"U  c #1BCCE3",
"Y  c #1ECDE8",
"T  c #03D3E3",
"R  c #0CD3E2",
"E  c #03DAE1",
"W  c #0BDBE2",
"Q  c #04D0EB",
"!  c #0FD3E9",
"~  c #13D4E3",
"^  c #1CD3E2",
"/  c #13DBE3",
"(  c #1BDAE4",
")  c #15D5EB",
"_  c #1CD5EB",
"`  c #14DDE9",
"'  c #1BDBEB",
"]  c #23C7E2",
"[  c #22CDE4",
"{  c #35CDEA",
"}  c #22D4E4",
"|  c #2CD1E7",
" . c #24DAE6",
".. c #29DBE5",
"X. c #22D5EB",
"o. c #2CD5ED",
"O. c #22DAEB",
"+. c #32D2E2",
"@. c #3BD4E6",
"#. c #36D8E7",
"$. c #39DCE4",
"%. c #33D1E9",
"&. c #37D2E8",
"*. c #34D2EB",
"=. c #3BD3EA",
"-. c #2ED4F0",
";. c #26D9F0",
":. c #2EDEF0",
">. c #07E2E6",
",. c #04E4E6",
"<. c #0AE6E6",
"1. c #0FE5E7",
"2. c #0FE5E7",
"3. c #0DE4EB",
"4. c #16E0E0",
"5. c #14E1E6",
"6. c #1AE0E1",
"7. c #1BE1E4",
"8. c #1AE4E6",
"9. c #19E3E4",
"0. c #11E8E1",
"q. c #12E9E4",
"w. c #17E9E6",
"e. c #15E0EF",
"r. c #12E4EA",
"t. c #1EE5EA",
"y. c #1AE2EB",
"u. c #16EDE8",
"i. c #14EFE9",
"p. c #13EAEC",
"a. c #11F1E9",
"s. c #13F0E9",
"d. c #18F0EB",
"f. c #17E0F0",
"g. c #18E3F2",
"h. c #2FE5E6",
"j. c #23E6EA",
"k. c #20E7EC",
"l. c #24E4ED",
"z. c #2BE3EB",
"x. c #2CE3E9",
"c. c #2DE4EA",
"v. c #28E4ED",
"b. c #22E8EB",
"n. c #25E8EC",
"m. c #2BECEB",
"M. c #2CEDEA",
"N. c #30E6E7",
"B. c #24E6F0",
"V. c #2BE7F0",
"C. c #22E8F1",
"Z. c #24EAF3",
"A. c #29E9F0",
"S. c #35EBF6",
"D. c #3FEBF5",
"F. c #3FE4FA",
"G. c #38EEF9",
"H. c #47CFE5",
"J. c #41D7E8",
"K. c #43D9EB",
"L. c #4BDBEE",
"P. c #46DCF7",
"I. c #45DAF2",
"U. c #40E3EC",
"Y. c #5AE9EF",
"T. c #5CE3F6",
"R. c #5EE8F2",
"E. c #55ECFF",
"W. c #45F7F9",
"Q. c #4EF4FF",
"!. c #51F4FE",
"~. c #62E5FB",
"^. c #68E6FD",
/* pixels */
"T T T e 7 0 0 j 4 4.v 9 9 e e g.d.Z g 6.Q.&.O 7 T T T e 7 9 9 j 4 4./ 0 e e e e.a.S g S E.=.7 7 ",
"3 l q.S h.W.M.C v t./ 7 7 e 7 7 x j.b.y s t w h 3 l 0.S N.W.m.A v l./ 2 7 e 7 7 x z.n.y M t r h ",
"; 7 9 2 M %.^ k C./ 7 7 7 7 7 e 7 7 9   9 9 9 o ; 2 9 7 M %.^ k Z./ 7 $ 7 7 7 e 7 9 7   9 9 7 o ",
"P q q $ X # $ G 7 o $ ~ ' ' ~ j h 7 r r j j U : P q 7 $ # # $ G 7 o $ ~ ' ' ~ r e 9 r a E j ] ; ",
"4 b x.b z v 0 2 ~ H q o 7 ' ( 8 7 $ i o 8 } F.{ 4 z c.B z v 0 2 H H q o 7 ' ( 3 $ 7 i - 9 ^ P.{ ",
"9 r } ^ W W e 7 $ R R 7 7 7 7   ) r R 9 2 4 h 2 9 r } ^ W W e 7 7 R R 7 $ 7 8 3 ) h R 9 4 4 f 2 ",
"Q * * * q q q K 2 9 7 7 7 7 y v.7 9 >.1.8.v w.a.J q * * q G q K 2 9 7 2 7 7 x V.7 e ,.<.8.v u.u.",
"o 7 0 2 3 y 0 9 y.y.e e y.l.x 0 w 7 2 O J.T.K..   7 0 2 o y 0 9 / ' e e t.B.x 0 q w 9 1 H.~.U.+ ",
"x ~ y.j o 7 q q t I.~.L.c k 9 o G q q q 7 2 0 / j / y.r $ 7 $ q i K.^.L.c k 9 o D q q q 7 2 0 / ",
"` 9 7 2 r ' W 7 2 2 3 3 o 7 G ) q 7 w r r r j / ` 9 7 2 r ' W 7 2 2 5 3 o 7 e ) q 7 w r r r j / ",
"7 2 2 2 7 0 2 9 7 2 9 a L = = = 7 7 7 a ' ' ~ e e   7 7 2 0 9 2 7 2 0 r i = & = 7 7 7 a ' ' R e ",
"7 e / / x y 9 / ! R h 9 9 q 7 2 0 0 7 3 7 w 7 o 7 e / ( x 0 0 / ) j h 9 9 e 7 2 0 0 7 3 7 w 7 o ",
"r e r ( S.S.( 8.q q a / r.r.9.B l.A.l.r 2 7 r ~ w r r ^ G.S.( t.q 7 ~ / 3.p.b V l.A.l.r 2 7 r ~ ",
"7 o 2 8 } } 0 9 G 7 % a x c $.Y.x x r 7 7 7 0 7 $ 7 o 3  . .3 0 G $ 8 a x ( $.R.x x r 7 7 7 w 7 ",
"e 7 r 8 o O 2 9 7 2 4 9 e $ o @ 7 7 7 e R / x 0 e 7 e 7 o 3 2 7 9 1 4 9 q $ o 6 7 7 7 e R / x 0 ",
"` e 9 7 8 ~ W k @...l 9 * , L G q q e 7 7 9 ( l.f.7 9 9 2 ~ ` h #. .v 7 * < F G q q q 7 7 0 / l.",
"9 9 h e 7 7 Y -.` R q q w a s t h 9 e e 7 7 e 2 q e T e 2 7 ^ | ` R q q w a s t e e e 7 7 7 9 2 ",
"E h a a w 7 7 7 % o o 7 7 e 9 2 9 j / ` y.y.` ` k h I a w 7 7 7 % o o 7 7 e 9 2 9 j ` y.` y.y./ ",
"w w r e 2 2 2 2 3 9 h W T e 7 o 9 2 h W h l / 7 3 8 r e 2 7 7 q 3 9 h W T e $ o 2 9 h l l / x 0 ",
"7 e X.:. ./ 5.1.0 f l W R r P -.a x 2 2 h j 3 O 2 0  .:.' / r.3.0 f l W R w s o.x 0 9 4 9 r 0 o ",
"T e a U ^ ( y.5.!.D. .j e 7 7 ) ;.w q e o r X.i T e a U ^ ( 8.S !.D. .j 9 7 7 ( _ I q 7 7 r P p ",
"8 o o 7 2 2 8 t M u o   9 7 o w $ w 7 o $ $ w P q $ $ 7 2 2 3 6 N u o   9 7 o 8 w $ 7 $ o $ i P ",
"7 8 [ o.U w 7 7 j / ~ ~ O.U % 8 7 7 w r $ 7 H 7 7 w [ o.U 7 7 7 f v x x O.^ 8 8 7 7 w w 7 7 e w ",
"&.m - 8 7 7 q q 3 ^ ^ I I e 9 E W j j j ~ / R 9 +.n t 7 7 q D D 3 ^ ^ a a 9 9 k W h j ~ ~ W j d "
};
