/* XPM */
static char *_8eebd29c911420a88e6a3cbdd2d4122Wz69nygNYMSLi33p[] = {
/* columns rows colors chars-per-pixel */
"48 48 171 2 ",
"   c #000001",
".  c #090101",
"X  c #020806",
"o  c #040209",
"O  c #00B8C7",
"+  c #00B7CA",
"@  c #00BDCD",
"#  c #09BECF",
"$  c #01BDD3",
"%  c #0CBDD4",
"&  c #02BDDA",
"*  c #0CBFD9",
"=  c #11BDDD",
"-  c #00BCE2",
";  c #0DC0C4",
":  c #01C4CD",
">  c #0CC2CC",
",  c #00CBCE",
"<  c #10C2C6",
"1  c #10C2CE",
"2  c #00D0CF",
"3  c #01C4D4",
"4  c #0BC4D4",
"5  c #02CAD4",
"6  c #09CBD4",
"7  c #02C4DB",
"8  c #0AC5DB",
"9  c #03CADA",
"0  c #0CCBDC",
"q  c #13C3D5",
"w  c #19C6D6",
"e  c #15CDD5",
"r  c #14C4DB",
"t  c #1CC7D8",
"y  c #13CCDB",
"u  c #1CCBDB",
"i  c #03D2D5",
"p  c #0AD3D3",
"a  c #05DAD4",
"s  c #0BDCD7",
"d  c #02D2DB",
"f  c #0CD4DC",
"g  c #02DBDC",
"h  c #0CDCDB",
"j  c #13D1D2",
"k  c #19D2D4",
"l  c #13D4DD",
"z  c #1CD5D8",
"x  c #19D2DC",
"c  c #12DADD",
"v  c #2DCAD7",
"b  c #21CEDF",
"n  c #21CADF",
"m  c #2ECCD9",
"M  c #2BD9D7",
"N  c #25D3DE",
"B  c #24DCDD",
"V  c #2BDADC",
"C  c #36D4D7",
"Z  c #38D6DC",
"A  c #37DFDF",
"S  c #3ADEDF",
"D  c #09E1D4",
"F  c #0BE4DB",
"G  c #0DEAD9",
"H  c #18E1D7",
"J  c #15E4DD",
"K  c #1CE1DA",
"L  c #19E1DD",
"P  c #11E8D9",
"I  c #21EBDE",
"U  c #03C4E1",
"Y  c #09C7E1",
"T  c #03CAE1",
"R  c #03CDE2",
"E  c #05CBE4",
"W  c #0CCAE0",
"Q  c #0DCDE1",
"!  c #05CCE9",
"~  c #10C3E1",
"^  c #13C5E0",
"/  c #17CAE0",
"(  c #13CBE2",
")  c #1CCCE2",
"_  c #01D0E0",
"`  c #01D5E0",
"'  c #02D4E2",
"]  c #0BD4E4",
"[  c #0ED3E2",
"{  c #06DAE5",
"}  c #0DDAE4",
"|  c #0EDEEA",
" . c #12D3E2",
".. c #10D6E1",
"X. c #13D6E2",
"o. c #1CD4E2",
"O. c #10D9E0",
"+. c #16DFE6",
"@. c #15DEE5",
"#. c #12DBE5",
"$. c #1BDAE2",
"%. c #13D6E8",
"&. c #1CD7EA",
"*. c #13DDE9",
"=. c #16DFE9",
"-. c #16DDEA",
";. c #19DCE9",
":. c #22CBE1",
">. c #2ECFE1",
",. c #22D4E0",
"<. c #24D3E5",
"1. c #2DD1E2",
"2. c #2ED1E3",
"3. c #23DBE3",
"4. c #21DAE4",
"5. c #29D9E6",
"6. c #2AD4EB",
"7. c #25D8EF",
"8. c #30D2E7",
"9. c #31DEE6",
"0. c #3FD8E0",
"q. c #31D1EB",
"w. c #3BD0E8",
"e. c #0EE2E3",
"r. c #0DEAE3",
"t. c #17E3E4",
"y. c #13E3E4",
"u. c #1AE1E4",
"i. c #1AE3E4",
"p. c #17EEE6",
"a. c #1DEAE5",
"s. c #14E0E9",
"d. c #13E7EA",
"f. c #13E3EB",
"g. c #18E1EB",
"h. c #1AE2EC",
"j. c #17E9ED",
"k. c #1FEDEB",
"l. c #1DEAED",
"z. c #23E0E4",
"x. c #23E7E5",
"c. c #22E5E7",
"v. c #23E4E5",
"b. c #2FE2E7",
"n. c #2BE7E6",
"m. c #28E6E6",
"M. c #22E8E7",
"N. c #23E6E8",
"B. c #23E5E9",
"V. c #2AE6E8",
"C. c #27EFEF",
"Z. c #3EE7E2",
"A. c #35E1EB",
"S. c #34E1E8",
"D. c #42DCE4",
"F. c #42DCE8",
"G. c #59D5ED",
"H. c #53DAEE",
"J. c #66DFEA",
"K. c #4CE7EB",
"L. c #47E9ED",
"P. c #4CEAED",
"I. c #54EFE9",
"U. c #55F0EA",
"Y. c #47EEF6",
"T. c #41E9F1",
"R. c #48EFF7",
"E. c #50E9FB",
"W. c #62E1EA",
"Q. c #65EBEF",
"!. c #65ECF2",
/* pixels */
"                                                                                                ",
"                                                                                                ",
"                                                                                                ",
"                                                                                                ",
"                                                                                                ",
"                                                                                                ",
"                                                                                                ",
"                                                                                                ",
"o o o o           .                 o o o o o o o o o             .                 o o o o o o ",
".     X       X             o                                               o                   ",
"            o o     X o   o X   . o X                     . . o     X o   o X   . o X           ",
"    . . o   o o o o             X       X     . X       o   o . . o     .     . X o     X     . ",
"9 d ` 9 5 d i g 5 s.*.9 5 3 9 =.V.s a z.E.w.4 , _ d d i 5 5 i g 9 s.*.9 5 3 5 g.V.s a z.E.w.4 , ",
"q f d.u.A.Y.n.D K x.l : 8 W 7 $ a k.C.e w q 0 9 q ..j.u.A.R.n.a K x.l : 8 W 7 7 a k.C.e w q 0 9 ",
"y $ : 3 t 2.u h N.f : 3 8 3 $ 7 7 3 5 3 9 $ $ & r 3 : : t 2.u f x.f : 3 7 3 $ 7 7 3 5 3 0 $ $ & ",
"R 7 8 $ $ 7 $ 7 9 3 7 0 f @.t.p 5 9 0 5 O.f l 4 R 7 8 $ $ 7 $ 7 7 3 9 9 f @.t.p 5 9 0 6 O.f l 4 ",
": 3.b.z 6 f ] 7 5 l 5 5 0 q.b , 5 7 ~ 3 2 j H.2.: 3.b.z p f ] 7 9  .5 3 0 q.:.5 5 7 T 3 , j G.,.",
"0 0 u $.h.#.9 @ = y 8 3 & & 3 : 7 9 f 8 7 3 ( , 0 0 x 4.h.#.9 $ = y 8 4 & & 3 3 9 9 f 4 5 3 ( : ",
"7 $ 4 $ @ 5 3 0 - 7 5 @ 3 5 o.F.4 d | e.y.L a.t.7 $ 4 $ 3 5 5 0 - 7 5 $ 3 5 x D.8 d &.e.r.J p.z.",
"3 5 Q 7 7 [ 9 8 I h d i J M.%.7 3 5 3 : Z W.S ; 3 5 Q 7 7 [ 9 8 I h d i y.M.%.7 3 5 3 : Z J.A < ",
"} f ;.0 3 3 $ 9 3 0.Q.L.%.! 7 > 9 8 r 3 8 8 d } f f =.0 3 3 $ 7 5 0.Q.L.%.! 3 > 7 8 0 3 4 * d { ",
"f , : 5 [ -.0 5 7 & = % O 5 6 f r $ 3 0 ) 4 d 7.f , : 5 [ -.0 5 7 & = * + 5 6 f ^ * 3 0 u 5 9 7.",
"5 5 5 : 5 9 5 3 3 3 [ ^ 7 7 3 7 : 7 7 ) V P s : 3 5 5 3 5 9 9 3 5 3 Q ^ 7 7 & U : 7 7 ) V G s @ ",
"7 Q } #.f 5 f } [ 5 f 5 7 7 7 4 0 0 5 8 4 3 8 7 7 Q } #.f 5 f } [ 5 p 5 5 7 7 * 0 8 : 5 3 3 8 7 ",
"7 * 8 $.K.Z.H x.6 : i e.e.y.u.$.x.N.h.f 5 9 [ 5 7 * 0 $.K.Z.L N.6 : i e.e.y.i.l n.N.B...3 9 Q 7 ",
"5 5 3 3 >.1.3 9 7 7 7 [ c k Z !.k z y 3 @ $ 8 ^ 5 7 3 : 2.2.5 9 7 7 7 0 c k C !.j l l 3 @ $ 8 Q ",
": 9 9 5 5 5 $ 7 7 7 & & U 3 @ @ 7 $ $ 9 #.=...6 3 9 9 5 5 9 $ 7 7 & & 7 7 3 3 @ 7 $ $ 9 %.;.X.8 ",
"g.9 3 3 5 l l i M B c 5 + q ( 7 & U 7 5 3 5 l x.g.9 5 3 5 l l d M z.c 3 $ r / 8 7 U 9 5 3 6 c x.",
"3 3 d 9 3 5 x 5.N 6 5 9 q :.:.4 5 d 9 3 5 5 3 9 3 3 d d : 3 x 5.N : 5 9 % :.<.4 5 d 5 : 5 5 5 5 ",
"g @.o.8 8 7 $ % 7 & & & 7 7 5 9 i i y.j.} f.f.d g @.o.4 7 7 $ % 7 U & & U 7 3 9 d 5 #.h.#.g.g.d ",
"3 5 6 : 3 7 7 5 5 3 5 i g d : % 7 @ 0 ;.l $.u.6 3 5 6 : 3 7 7 3 9 3 5 i g d 5 % 7 @ f =.f #.u.5 ",
"9 : 5.A.h g i.F ' d f.l.f 6 y <.....3 O 5 5 @ 5 7 , 9.T.s g i.F ` d y.l.h 6 y <. .X.5 O 5 3 @ 9 ",
"Q 0 4 ) x c.u.y.U.P.3.9 7 $ 4 >.4.6 3 5 3 y u t W 0 8 ) x z.L J I.K.3.9 7 3 4 >.4.y 3 3 5 0 u t ",
"$ 3 3 9 @ 3 % r m v 1 : 9 5 3 3 3 $ 7 7 $ & ~ ^ * 3 3 0 @ 3 # r m v q : 5 5 3 3 * 7 7 7 & & 8 / ",
": 4 y 6.) 0 3 9 d l l c $.y 9 Y 3 3 9 9 7 7 0 7 3 4 y 6.) 0 3 5 d ..c l o.l 9 Y 3 3 7 7 7 7 8 8 ",
"8.n 4 8 3 3 3 & 8 ) o.x y 5 9 _ X.l l  .X.X.l 8 2.u 4 8 3 7 7 7 8 ) o.x y 5 9 _ X.l l X.X.$.l 6 ",
"            o X                                           .                                     ",
". o .                 o .     .                 . . .                 o .     .     o .     o o ",
"                  .             o                                 .             o               ",
"            . .             o o                       o   o . . o           o o                 ",
"                                                                                                ",
"                                                                                                ",
"                                                                                                ",
"                                                                                                ",
"                                                                                                ",
"                                                                                                ",
"                                                                                                ",
"                                                                                                "
};
